<svg id="Layer_1" data-name="Layer 1" xmlns="http://www.w3.org/2000/svg" viewBox="0 0 512 512"><defs><style>.cls-1{opacity:0.2;}.cls-2{fill:#5490f4;}.cls-3{fill:#425a81;}.cls-4{fill:#4880df;}.cls-5{fill:#3672d5;}.cls-6{fill:#7aa7f3;}.cls-7{fill:#558ce7;}</style></defs><g class="cls-1"><path class="cls-2" d="M256,0C115.39,0,0,115.39,0,256S115.39,512,256,512,512,396.61,512,256,396.61,0,256,0Z"/></g><path class="cls-3" d="M81.31,393.47A5.38,5.38,0,0,1,76,388c.87-47.12,8.46-86.13,43.55-135a5.37,5.37,0,0,1,8.72,6.26c-33.46,46.59-40.7,83.87-41.54,128.92A5.37,5.37,0,0,1,81.31,393.47Z"/><path class="cls-4" d="M429.39,215.58c-.26,1.06-.57,2.11-.94,3.16a31.32,31.32,0,0,1-59.92-3.13,2.12,2.12,0,0,0-3.8-.71,38.8,38.8,0,0,0-5.14,10.42,39.1,39.1,0,1,0,69.8-9.74Z"/><path class="cls-5" d="M429.39,215.58c-.26,1.06-.57,2.11-.94,3.16a31.27,31.27,0,0,1-16.09,17.76,39.09,39.09,0,0,1-27.31,38,39.09,39.09,0,0,0,44.34-58.93Z"/><path class="cls-6" d="M428.8,193.49c-26.94-68.28-122-94.74-212.3-59.1C136.41,166,87,235.82,95.59,298.84a4.18,4.18,0,0,0,5.86,3.26c44-19.74,90.78-22.19,129.44-9a1.78,1.78,0,0,0,1.77-3c-17.17-15.85-25.72-36-20.94-55a42.81,42.81,0,0,1,2.45-7.1c8.42,12.28,21.56,23.21,37.88,31a2.55,2.55,0,0,0,3.52-1.46c7.6-22.2,24.79-43.56,49.33-58.25,46.47-27.8,101.61-21.13,123.18,14.9a60.36,60.36,0,0,1,7.8,21.54,103.62,103.62,0,0,0-7.08-42.2Z"/><path class="cls-7" d="M435.88,235.69a102.8,102.8,0,0,0-30.15-77.29c-51.94-27.26-131-20.83-202.15,21.73-52.87,31.64-90.21,76.58-106.12,121.66a4.19,4.19,0,0,0,4,.31c44-19.74,90.78-22.19,129.44-9a1.78,1.78,0,0,0,1.79-3c-17.19-15.86-25.75-36-21-55.05a43.08,43.08,0,0,1,1.46-4.68,1.43,1.43,0,0,1,2.48-.33c8.44,11.43,21,21.57,36.38,28.91a2.56,2.56,0,0,0,3.53-1.47c7.6-22.19,24.79-43.55,49.33-58.24,46.47-27.8,101.61-21.13,123.17,14.9a60.38,60.38,0,0,1,7.81,21.54Z"/><path class="cls-7" d="M428.8,193.49c-22.66-57.43-93.51-85.27-169.19-71.46,54.7.07,102.47,22.52,124.89,62.22,18.54,4.17,34.22,14.27,43.57,29.9a60.38,60.38,0,0,1,7.81,21.54,103.62,103.62,0,0,0-7.08-42.2Z"/><path class="cls-4" d="M428.8,193.49a103.74,103.74,0,0,0-23.07-35.09c-18.47-9.69-40.37-15.12-64.12-16.19,18.18,10.37,33,24.53,42.89,42,18.55,4.17,34.22,14.27,43.57,29.9a60.38,60.38,0,0,1,7.81,21.54,103.62,103.62,0,0,0-7.08-42.2Z"/></svg>