<svg id="b4e3060f-5130-489b-849d-7962070b1d51" xmlns="http://www.w3.org/2000/svg" viewBox="0 0 1126 585.99"><defs><style>.cls-1{fill:#ccc;}.cls-2{fill:#3f3d56;}.cls-3{fill:#5490f4;}.cls-4{fill:#fff;}</style></defs><path class="cls-1" d="M652.49,486.28l-1.12-1.66q2.49-1.67,4.92-3.39l1.16,1.64C655.81,484,654.15,485.16,652.49,486.28Z"/><path class="cls-1" d="M764.88,218.93q-.84-2.9-1.62-5.8l1.93-.52c.52,1.93,1,3.85,1.61,5.76Z"/><path class="cls-1" d="M394,328q-.33-3-.72-5.93l2-.26c.26,2,.51,4,.73,6Z"/><path class="cls-2" d="M948.8,11.62h-319a17,17,0,0,0-17,17v168a17,17,0,0,0,17,17h319a17,17,0,0,0,17-17v-168A17,17,0,0,0,948.8,11.62Zm15,185a15,15,0,0,1-15,15h-319a15,15,0,0,1-15-15v-168a15,15,0,0,1,15-15h319a15,15,0,0,1,15,15Z"/><path class="cls-1" d="M924.74,135.62h-112a8,8,0,0,1,0-16h112a8,8,0,0,1,0,16Z"/><path class="cls-1" d="M854.74,101.62h-42a8,8,0,0,1,0-16h42a8,8,0,0,1,0,16Z"/><path class="cls-3" d="M762.3,175.62h-102a8.51,8.51,0,0,1-8.5-8.5v-113a8.52,8.52,0,0,1,8.5-8.5h102a8.51,8.51,0,0,1,8.5,8.5v113A8.49,8.49,0,0,1,762.3,175.62Z"/><path class="cls-2" d="M712.85,152.09c-2.25-.07-5.05-.14-7.21-1.72a5.52,5.52,0,0,1-2.17-4.13,3.75,3.75,0,0,1,1.26-3.06,4.8,4.8,0,0,1,4.54-.65l-1.83-13.42,1.35-.18L711,144.7l-1.13-.51c-1.31-.6-3.1-.91-4.21,0a2.41,2.41,0,0,0-.78,2,4.12,4.12,0,0,0,1.62,3.08c1.67,1.23,3.9,1.39,6.43,1.46Z"/><rect class="cls-2" x="693.45" y="130.27" width="7.33" height="1.36"/><rect class="cls-2" x="716.57" y="130.27" width="7.33" height="1.36"/><path class="cls-2" d="M680.72,111.48c-5.9-.67-10.47-6.32-11-12.06-.59-6.82,3.38-13.31,8.83-17.13,5.7-4,12.81-5.68,19.68-6.05a54.06,54.06,0,0,1,37,12.19c5.15,4.27,10,9.72,11.78,16.3,1.59,5.72.3,12.19-4.3,16.2a10.91,10.91,0,0,1-8.34,2.57c-3.56-.37-6.86-2.25-9.7-4.32-5.55-4-10.1-9.64-16.85-11.75-4.95-1.54-11.37-.18-14.4,4.29a8.25,8.25,0,0,0-1.3,3.42,1,1,0,0,0,.71,1.25,1,1,0,0,0,1.26-.71c.79-5.64,7.73-7.74,12.59-6.46,7.1,1.88,11.86,8.21,17.68,12.23a21.37,21.37,0,0,0,10.29,4.11,12.72,12.72,0,0,0,9-2.76c5-3.92,6.88-10.68,5.78-16.76-1.28-7-6-13.07-11.21-17.74a56.09,56.09,0,0,0-38.33-14.16c-7.19.16-14.7,1.65-20.89,5.45-6,3.69-10.66,9.86-11.27,17-.53,6.31,2.85,12.91,8.67,15.68a13.45,13.45,0,0,0,4.35,1.22c1.3.15,1.29-1.89,0-2Z"/><path class="cls-2" d="M901,386.41H486a19,19,0,0,0-19,19v58a19,19,0,0,0,19,19H901a19,19,0,0,0,19-19v-58A19,19,0,0,0,901,386.41Zm17,77a17,17,0,0,1-17,17H486a17,17,0,0,1-17-17v-58a17,17,0,0,1,17-17H901a17,17,0,0,1,17,17Z"/><path class="cls-3" d="M558.78,402.42a32,32,0,1,0,32,32A32,32,0,0,0,558.78,402.42Z"/><path class="cls-1" d="M852.12,461.42h-229a8,8,0,0,1,0-16h229a8,8,0,0,1,0,16Z"/><path class="cls-1" d="M737.12,427.42h-114a8,8,0,0,1,0-16h114a8,8,0,0,1,0,16Z"/><path class="cls-2" d="M490.65,243.66A19,19,0,0,0,471.7,226h-199a19,19,0,0,0-19,19v58a19,19,0,0,0,19,19h199a19,19,0,0,0,19-19V245C490.7,244.54,490.68,244.1,490.65,243.66ZM488.7,303a17,17,0,0,1-17,17h-199a17,17,0,0,1-17-17V245a17,17,0,0,1,17-17h199a17,17,0,0,1,16.94,15.68q.06.65.06,1.32Z"/><path class="cls-1" d="M421.2,299h-98a8,8,0,0,1,0-16h98a8,8,0,1,1,0,16Z"/><path class="cls-1" d="M391.2,265h-68a8,8,0,1,1,0-16h68a8,8,0,0,1,0,16Z"/><path class="cls-4" d="M539.18,450.85a.64.64,0,0,1-.64-.65h0c.11-5.64,1-10.3,5.21-16.14a.64.64,0,0,1,1,.75,24.49,24.49,0,0,0-5,15.41A.63.63,0,0,1,539.18,450.85Z"/><path class="cls-4" d="M580.79,429.58c0,.13-.07.26-.11.38a3.74,3.74,0,0,1-7.16-.37.26.26,0,0,0-.31-.19.31.31,0,0,0-.15.1,4.4,4.4,0,0,0-.61,1.25,4.67,4.67,0,1,0,8.34-1.17Z"/><path class="cls-4" d="M580.79,429.58c0,.13-.07.26-.11.38a3.71,3.71,0,0,1-1.92,2.12,4.69,4.69,0,0,1-3.27,4.55,4.67,4.67,0,0,0,5.3-7.05Z"/><path class="cls-4" d="M580.72,426.94c-3.22-8.16-14.58-11.32-25.38-7.06-9.58,3.78-15.48,12.12-14.46,19.66a.51.51,0,0,0,.56.43l.14,0a21.35,21.35,0,0,1,15.48-1.08.21.21,0,0,0,.27-.13.22.22,0,0,0-.06-.23c-2-1.89-3.07-4.3-2.5-6.57a5,5,0,0,1,.29-.85,11.42,11.42,0,0,0,4.53,3.7.31.31,0,0,0,.41-.14v0a13.39,13.39,0,0,1,5.9-7c5.55-3.33,12.15-2.53,14.73,1.78a7.35,7.35,0,0,1,.93,2.57,12.39,12.39,0,0,0-.85-5Z"/><path class="cls-4" d="M581.57,432a12.27,12.27,0,0,0-3.61-9.24c-6.21-3.26-15.66-2.49-24.17,2.6-6.32,3.78-10.78,9.15-12.68,14.54a.49.49,0,0,0,.47,0,21.35,21.35,0,0,1,15.48-1.08.21.21,0,0,0,.27-.13.2.2,0,0,0-.06-.23c-2-1.89-3.07-4.3-2.51-6.58,0-.19.11-.37.18-.56a.16.16,0,0,1,.22-.09.13.13,0,0,1,.07.05,11.66,11.66,0,0,0,4.35,3.46.31.31,0,0,0,.41-.14l0,0a13.45,13.45,0,0,1,5.89-7c5.56-3.32,12.15-2.53,14.73,1.78a7.21,7.21,0,0,1,.93,2.58Z"/><path class="cls-4" d="M580.72,426.94c-2.71-6.86-11.18-10.19-20.23-8.54,6.54,0,12.25,2.69,14.93,7.44a7.89,7.89,0,0,1,5.21,3.57,7.22,7.22,0,0,1,.94,2.58,12.47,12.47,0,0,0-.85-5.05Z"/><path class="cls-4" d="M580.72,426.94a12.23,12.23,0,0,0-2.76-4.19,18.24,18.24,0,0,0-7.66-1.94,13.42,13.42,0,0,1,5.12,5,7.91,7.91,0,0,1,5.21,3.58,7.17,7.17,0,0,1,.94,2.57,12.39,12.39,0,0,0-.85-5Z"/></svg>