<svg id="acb0935a-a5d3-4db2-8c3a-1d54a68cd318" xmlns="http://www.w3.org/2000/svg" viewBox="0 0 1099 458.04"><defs><style>.cls-1{fill:#e6e6e6;}.cls-2{fill:#ccc;}.cls-3{fill:#5490f4;}.cls-4{fill:#2f2e41;}</style></defs><path class="cls-1" d="M785,390a112.85,112.85,0,0,1-38.52-6.7h0l-.18-.06a113.65,113.65,0,0,1-15.64-7c-1.29-.7-2.59-1.44-3.87-2.21-.88-.52-1.75-1.06-2.62-1.6A114,114,0,1,1,899.05,276h0a114.57,114.57,0,0,1-54.75,97.41c-2,1.19-4,2.33-6.17,3.49-3,1.58-6,3-9.07,4.28l-.56.25c-1.06.43-2.11.84-3.17,1.24-.48.19-1,.38-1.5.56A113.7,113.7,0,0,1,785.09,390Zm-38.17-8.7.16.06a110.78,110.78,0,0,0,12.74,3.77A112.5,112.5,0,0,0,785,388h.11a111.71,111.71,0,0,0,38.06-6.65c.5-.18,1-.36,1.47-.55.84-.31,1.67-.64,2.49-1h0l.63-.26c3.16-1.3,6.34-2.79,9.46-4.43,2.15-1.14,4.14-2.27,6.06-3.44A112.54,112.54,0,0,0,897.05,276h0a112,112,0,1,0-171.83,94.7c.85.53,1.7,1.05,2.57,1.57,1.26.76,2.54,1.49,3.81,2.17a111.07,111.07,0,0,0,15.21,6.86Z"/><path class="cls-1" d="M579,228a112.85,112.85,0,0,1-38.52-6.7h0l-.18-.06a113.65,113.65,0,0,1-15.64-7c-1.29-.7-2.59-1.44-3.87-2.21-.88-.52-1.75-1.06-2.62-1.6A114,114,0,1,1,693.05,114h0a114.57,114.57,0,0,1-54.75,97.41c-2,1.19-4,2.33-6.17,3.49-3,1.58-6,3-9.07,4.28l-.56.25c-1.06.43-2.11.84-3.17,1.24-.48.19-1,.38-1.5.56A113.7,113.7,0,0,1,579.09,228Zm-38.17-8.7.16.06a110.78,110.78,0,0,0,12.74,3.77A112.5,112.5,0,0,0,579,226h.11a111.71,111.71,0,0,0,38.06-6.65c.5-.18,1-.36,1.47-.55.84-.31,1.67-.64,2.49-1h0l.63-.26c3.16-1.3,6.34-2.79,9.46-4.43,2.15-1.14,4.14-2.27,6.06-3.44A112.54,112.54,0,0,0,691.05,114h0a112,112,0,1,0-171.83,94.7c.85.53,1.7,1,2.57,1.57,1.26.76,2.54,1.49,3.81,2.17a111.07,111.07,0,0,0,15.21,6.86Z"/><path class="cls-1" d="M414,458a112.85,112.85,0,0,1-38.52-6.7h0l-.18-.06a113.65,113.65,0,0,1-15.64-7c-1.29-.7-2.59-1.44-3.87-2.21-.88-.52-1.75-1.06-2.62-1.6A114,114,0,1,1,528.05,344h0a114.57,114.57,0,0,1-54.75,97.41c-2,1.19-4,2.33-6.17,3.49-3,1.58-6,3-9.07,4.28l-.56.25c-1.06.43-2.11.84-3.17,1.24-.48.19-1,.38-1.5.56A113.7,113.7,0,0,1,414.09,458Zm-38.17-8.7.16.06a110.78,110.78,0,0,0,12.74,3.77A112.5,112.5,0,0,0,414,456h.11a111.71,111.71,0,0,0,38.06-6.65c.5-.18,1-.36,1.47-.55.84-.31,1.67-.64,2.49-1h0l.63-.26c3.16-1.3,6.34-2.79,9.46-4.43,2.15-1.14,4.14-2.27,6.06-3.44A112.54,112.54,0,0,0,526.05,344h0a112,112,0,1,0-171.83,94.7c.85.53,1.7,1.05,2.57,1.57,1.26.76,2.54,1.49,3.81,2.17A111.07,111.07,0,0,0,375.81,449.34Z"/><circle class="cls-2" cx="476.28" cy="248.04" r="15.84"/><circle class="cls-2" cx="648.28" cy="27.04" r="15.84"/><circle class="cls-2" cx="872.28" cy="210.04" r="15.84"/><circle class="cls-3" cx="781.27" cy="284.4" r="53.52" transform="translate(375.39 1010.03) rotate(-80.78)"/><path class="cls-4" d="M757,255.59c-6.25-1.48-13-3.46-17.45-8.38-3.79-4.18-5.57-10.64-2.21-15.61,3.07-4.53,9.12-6.19,14.22-7,5.92-1,12-1.14,17.56-3.66a18.07,18.07,0,0,0,6.93-5.5,46.92,46.92,0,0,0,4.39-7.54,27.31,27.31,0,0,1,4.6-7.07,14,14,0,0,1,7.9-3.86c6.7-1,13.07,2.08,18.34,5.93A80.07,80.07,0,0,1,825.08,216a86.6,86.6,0,0,1,18.47,38.15c.39,1.89,3.28,1.09,2.89-.8a89.45,89.45,0,0,0-16.86-36.52,87.35,87.35,0,0,0-14.11-14.46c-5.44-4.37-11.71-8.19-18.86-8.55a19.36,19.36,0,0,0-9.59,1.9,17.45,17.45,0,0,0-6.68,6.22c-3.37,5.11-5,11.72-10.43,15.17s-12.4,3.54-18.65,4.51c-5.55.87-11.73,2.7-15.5,7.16-4.15,4.93-4,11.66-.89,17.1,3.45,6,9.86,9.35,16.3,11.31,1.66.51,3.34.93,5,1.33,1.88.44,2.68-2.45.8-2.89Z"/><path class="cls-4" d="M779,302.27l-.05-2c3.72-.1,7-.33,9.46-2.13a6.16,6.16,0,0,0,2.38-4.53,3.54,3.54,0,0,0-1.15-2.9c-1.64-1.38-4.27-.93-6.19,0l-1.65.76L785,268.23l2,.27-2.7,19.72c2.61-.76,5-.43,6.68,1a5.44,5.44,0,0,1,1.86,4.49,8.12,8.12,0,0,1-3.2,6.07C786.4,302.07,782.29,302.18,779,302.27Z"/><rect class="cls-4" x="796.73" y="270.2" width="10.77" height="2"/><rect class="cls-4" x="762.73" y="270.2" width="10.77" height="2"/><circle class="cls-3" cx="412.27" cy="352.4" r="53.52"/><path class="cls-4" d="M410,370.27l-.05-2c3.72-.1,7-.33,9.46-2.13a6.16,6.16,0,0,0,2.38-4.53,3.54,3.54,0,0,0-1.15-2.9c-1.64-1.38-4.27-.93-6.19,0l-1.65.76L416,336.23l2,.27-2.7,19.72c2.61-.76,5-.43,6.68,1a5.44,5.44,0,0,1,1.86,4.49,8.12,8.12,0,0,1-3.2,6.07C417.4,370.07,413.29,370.18,410,370.27Z"/><rect class="cls-4" x="427.73" y="338.2" width="10.77" height="2"/><rect class="cls-4" x="393.73" y="338.2" width="10.77" height="2"/><circle class="cls-2" cx="580.26" cy="120.86" r="53.52"/><path class="cls-4" d="M618.09,140.65l-.05-2c3.72-.1,7-.34,9.46-2.14a6.16,6.16,0,0,0,2.38-4.53,3.51,3.51,0,0,0-1.15-2.89c-1.64-1.38-4.27-.94-6.19-.06l-1.65.76,3.17-23.19,2,.27-2.7,19.73c2.61-.77,5-.44,6.68,1a5.46,5.46,0,0,1,1.86,4.49,8.16,8.16,0,0,1-3.2,6.08C625.51,140.44,621.4,140.56,618.09,140.65Z"/><rect class="cls-4" x="601.84" y="108.57" width="10.77" height="2"/><path class="cls-4" d="M611.9,64.18c-2-11.91-9.55-22.16-19.26-29.07a55.07,55.07,0,0,0-32.52-9.94c-22.49.24-44.48,12.84-56.54,31.75C490.22,77.86,490,105.21,499,127.85a87.55,87.55,0,0,0,8.74,16.62c3.87,5.74,8.57,10.81,13.14,16,8.51,9.67,18.27,23.11,12.57,36.61-2.11,5-6.56,9.51-12.21,9.87-4.78.3-10.07-2-12.19-6.48-2.37-5,.91-11,5.76-13,5.09-2.16,10.38,1,12.26,5.92a9.47,9.47,0,0,1,.09,7.06,1.55,1.55,0,0,0,.54,2.05,1.5,1.5,0,0,0,2.05-.53,13.42,13.42,0,0,0-3.36-14.85,11.86,11.86,0,0,0-15.31-1c-4.76,3.47-7.27,9.69-4.86,15.3,2.08,4.86,7.13,7.79,12.23,8.41a16.35,16.35,0,0,0,14.75-6.53,23.92,23.92,0,0,0,4.75-17.27C536.26,170.7,524,160.2,514.79,149a84.88,84.88,0,0,1-16.87-34.53,78.27,78.27,0,0,1,.32-37.78A64.2,64.2,0,0,1,516.58,46a67.89,67.89,0,0,1,30.24-16.2,56.15,56.15,0,0,1,33.69,2.05c11.28,4.47,21.28,13.32,26,24.58A38.43,38.43,0,0,1,609,65c.32,1.9,3.21,1.1,2.89-.8Z"/><path class="cls-4" d="M611.83,64.64c5-4.83,13.18-5.53,19.21-2.26,6.25,3.38,8.75,10.67,7.15,17.4a15.75,15.75,0,0,1-6.11,9.37c-1.58,1.09-.08,3.69,1.51,2.59,6.76-4.7,9.6-13.76,7.29-21.6-2.4-8.18-10.39-13.07-18.74-12.74a18.88,18.88,0,0,0-12.43,5.11C608.32,63.86,610.44,66,611.83,64.64Z"/><path class="cls-4" d="M425.89,318.59A18.72,18.72,0,0,0,440.62,308a21.66,21.66,0,0,0,.08-19.06,30.52,30.52,0,0,0-14.39-14.21c-7.29-3.53-15.53-4.51-23.56-4.19-15.12.61-31.78,4.86-41.07,17.75a27.83,27.83,0,0,0-5.3,20.42c1.18,7.59,5.8,14.17,10.74,19.83,5.17,5.94,11.14,11.3,15.22,18.1,3.54,5.89,5.44,13.3,3.08,20a14.69,14.69,0,0,1-2.48,4.35c-1.22,1.47.89,3.61,2.12,2.12,4.26-5.14,5.12-11.92,3.78-18.31-1.48-7-5.73-13-10.39-18.29-9.05-10.34-22.54-21.63-18.73-37.08a29.72,29.72,0,0,1,11.5-16.57c6-4.39,13.24-6.8,20.54-8.11,14-2.51,30.9-2.25,41.46,8.64,4.39,4.52,7.4,10.85,6.6,17.27-.73,5.78-4.43,11.46-9.83,13.87a12.94,12.94,0,0,1-4.1,1.07c-1.9.18-1.92,3.18,0,3Z"/></svg>