<svg id="b4e3060f-5130-489b-849d-7962070b1d51" xmlns="http://www.w3.org/2000/svg" viewBox="0 0 1118.48 585.99"><defs><style>.cls-1{fill:#3f3d56;}.cls-2{fill:#5490f4;}.cls-3{fill:#e6e6e6;}</style></defs><path class="cls-1" d="M948.8,11.62h-319a17,17,0,0,0-17,17v168a17,17,0,0,0,17,17h319a17,17,0,0,0,17-17v-168A17,17,0,0,0,948.8,11.62Zm15,185a15,15,0,0,1-15,15h-319a15,15,0,0,1-15-15v-168a15,15,0,0,1,15-15h319a15,15,0,0,1,15,15Z"/><path class="cls-2" d="M762.3,175.62h-102a8.51,8.51,0,0,1-8.5-8.5v-113a8.52,8.52,0,0,1,8.5-8.5h102a8.51,8.51,0,0,1,8.5,8.5v113A8.49,8.49,0,0,1,762.3,175.62Z"/><path class="cls-1" d="M712.85,152.09c-2.25-.07-5.05-.14-7.21-1.72a5.52,5.52,0,0,1-2.17-4.13,3.75,3.75,0,0,1,1.26-3.06,4.8,4.8,0,0,1,4.54-.65l-1.83-13.42,1.35-.18L711,144.7l-1.13-.51c-1.31-.6-3.1-.91-4.21,0a2.41,2.41,0,0,0-.78,2,4.12,4.12,0,0,0,1.62,3.08c1.67,1.23,3.9,1.39,6.43,1.46Z"/><rect class="cls-1" x="693.45" y="130.27" width="7.33" height="1.36"/><rect class="cls-1" x="716.57" y="130.27" width="7.33" height="1.36"/><path class="cls-1" d="M680.72,111.48c-5.9-.67-10.47-6.32-11-12.06-.59-6.82,3.38-13.31,8.83-17.13,5.7-4,12.81-5.68,19.68-6.05a54.06,54.06,0,0,1,37,12.19c5.15,4.27,10,9.72,11.78,16.3,1.59,5.72.3,12.19-4.3,16.2a10.91,10.91,0,0,1-8.34,2.57c-3.56-.37-6.86-2.25-9.7-4.32-5.55-4-10.1-9.64-16.85-11.75-4.95-1.54-11.37-.18-14.4,4.29a8.25,8.25,0,0,0-1.3,3.42,1,1,0,0,0,.71,1.25,1,1,0,0,0,1.26-.71c.79-5.64,7.73-7.74,12.59-6.46,7.1,1.88,11.86,8.21,17.68,12.23a21.37,21.37,0,0,0,10.29,4.11,12.72,12.72,0,0,0,9-2.76c5-3.92,6.88-10.68,5.78-16.76-1.28-7-6-13.07-11.21-17.74a56.09,56.09,0,0,0-38.33-14.16c-7.19.16-14.7,1.65-20.89,5.45-6,3.69-10.66,9.86-11.27,17-.53,6.31,2.85,12.91,8.67,15.68a13.45,13.45,0,0,0,4.35,1.22c1.3.15,1.29-1.89,0-2Z"/><path class="cls-1" d="M901,386.41H486a19,19,0,0,0-19,19v58a19,19,0,0,0,19,19H901a19,19,0,0,0,19-19v-58A19,19,0,0,0,901,386.41Zm17,77a17,17,0,0,1-17,17H486a17,17,0,0,1-17-17v-58a17,17,0,0,1,17-17H901a17,17,0,0,1,17,17Z"/><path class="cls-2" d="M558.78,402.42a32,32,0,1,0,32,32A32,32,0,0,0,558.78,402.42Z"/><path class="cls-1" d="M490.65,243.66A19,19,0,0,0,471.7,226h-199a19,19,0,0,0-19,19v58a19,19,0,0,0,19,19h199a19,19,0,0,0,19-19V245C490.7,244.54,490.68,244.1,490.65,243.66ZM488.7,303a17,17,0,0,1-17,17h-199a17,17,0,0,1-17-17V245a17,17,0,0,1,17-17h199a17,17,0,0,1,16.94,15.68q.06.65.06,1.32Z"/><path class="cls-3" d="M618.11,421.42a3,3,0,0,0,0,6H759.32a3,3,0,1,0,0-6H618.11Z"/><path class="cls-3" d="M618.11,445.42a3,3,0,0,0,0,6H759.32a3,3,0,1,0,0-6H618.11Z"/><path class="cls-3" d="M715.9,445.42a3,3,0,0,0,0,6H857.12a3,3,0,1,0,0-6H715.9Z"/><path class="cls-3" d="M379,265a3,3,0,0,0,0-6H318.19a3,3,0,0,0,0,6Z"/><path class="cls-3" d="M396.21,265a3,3,0,0,0,0-6H335.44a3,3,0,0,0,0,6Z"/><path class="cls-3" d="M378.51,289.39a3,3,0,1,0,0-6H317.75a3,3,0,0,0,0,6Z"/><path class="cls-3" d="M426.45,289.39a3,3,0,0,0,0-6H365.68a3,3,0,0,0,0,6Z"/><path class="cls-3" d="M868.5,98.62a3,3,0,0,0,0-6H807.74a3,3,0,1,0,0,6Z"/><path class="cls-3" d="M929.75,128.62a3,3,0,0,0,0-6H869a3,3,0,1,0,0,6Z"/><path class="cls-3" d="M868.5,128.62a3,3,0,0,0,0-6H807.74a3,3,0,1,0,0,6Z"/></svg>