<svg id="b4e3060f-5130-489b-849d-7962070b1d51" xmlns="http://www.w3.org/2000/svg" viewBox="0 0 1118.48 507.98"><defs><style>.cls-1{fill:#3f3d56;}.cls-2{fill:#5490f4;}.cls-3{fill:#e6e6e6;}.cls-4{fill:#fff;}</style></defs><path class="cls-1" d="M754.8,0h-272a14.5,14.5,0,0,0-14.5,14.5V157.77a14.5,14.5,0,0,0,14.5,14.49h272a14.5,14.5,0,0,0,14.5-14.49V14.5A14.5,14.5,0,0,0,754.8,0Zm12.79,157.77a12.79,12.79,0,0,1-12.79,12.79h-272A12.79,12.79,0,0,1,470,157.77h0V14.5A12.79,12.79,0,0,1,482.76,1.71h272A12.78,12.78,0,0,1,767.59,14.5Z"/><path class="cls-2" d="M595.75,139.86h-87a7.27,7.27,0,0,1-7.25-7.25V36.24A7.27,7.27,0,0,1,508.77,29h87A7.26,7.26,0,0,1,603,36.24v96.37a7.24,7.24,0,0,1-7.23,7.25Z"/><path class="cls-1" d="M553.58,119.79c-1.91-.06-4.3-.12-6.14-1.47a4.67,4.67,0,0,1-1.85-3.52,3.2,3.2,0,0,1,1.07-2.61,4.1,4.1,0,0,1,3.87-.55L549,100.19l1.15-.15L552,113.49l-1-.44c-1.11-.51-2.64-.77-3.59,0a2.08,2.08,0,0,0-.66,1.71,3.5,3.5,0,0,0,1.38,2.63c1.42,1,3.33,1.18,5.48,1.24Z"/><rect class="cls-1" x="537.04" y="101.18" width="6.25" height="1.16"/><rect class="cls-1" x="556.76" y="101.18" width="6.25" height="1.16"/><path class="cls-1" d="M526.18,85.16c-5-.57-8.92-5.39-9.38-10.29-.5-5.81,2.89-11.35,7.53-14.6,4.86-3.41,10.93-4.85,16.79-5.16A46.11,46.11,0,0,1,572.67,65.5c4.39,3.64,8.53,8.29,10.05,13.9,1.35,4.88.25,10.4-3.67,13.82a9.29,9.29,0,0,1-7.11,2.19,17.8,17.8,0,0,1-8.28-3.68c-4.73-3.42-8.61-8.22-14.37-10-4.22-1.32-9.69-.16-12.28,3.65a7,7,0,0,0-1.1,2.92.85.85,0,0,0,.57,1.06h0a.87.87,0,0,0,1.07-.57v0c.67-4.81,6.59-6.6,10.73-5.51,6.06,1.61,10.12,7,15.08,10.43a18.26,18.26,0,0,0,8.78,3.51,10.86,10.86,0,0,0,7.67-2.36c4.26-3.34,5.87-9.1,4.93-14.29-1.09-6-5.12-11.15-9.56-15.13a47.83,47.83,0,0,0-32.69-12.07c-6.13.13-12.53,1.4-17.81,4.64-5.12,3.15-9.09,8.41-9.61,14.5a13.7,13.7,0,0,0,7.39,13.37,11.17,11.17,0,0,0,3.71,1c1.11.13,1.1-1.61,0-1.7Z"/><path class="cls-1" d="M809.75,300H455.85a16.21,16.21,0,0,0-16.21,16.21h0v49.46a16.2,16.2,0,0,0,16.21,16.2h353.9A16.2,16.2,0,0,0,826,365.67V316.21A16.21,16.21,0,0,0,809.75,300Zm14.5,65.67a14.5,14.5,0,0,1-14.5,14.5H455.85a14.5,14.5,0,0,1-14.5-14.5V316.21a14.5,14.5,0,0,1,14.5-14.5h353.9a14.5,14.5,0,0,1,14.5,14.5Z"/><path class="cls-2" d="M517.91,313.66A27.29,27.29,0,1,0,545.2,341,27.29,27.29,0,0,0,517.91,313.66Z"/><path class="cls-1" d="M995.14,210.75A16.21,16.21,0,0,0,979,195.68H809.28a16.21,16.21,0,0,0-16.21,16.21v49.46a16.2,16.2,0,0,0,16.21,16.2H979a16.2,16.2,0,0,0,16.2-16.2h0V211.89C995.18,211.5,995.17,211.12,995.14,210.75Zm-1.66,50.6a14.5,14.5,0,0,1-14.5,14.5H809.28a14.5,14.5,0,0,1-14.5-14.5V211.89a14.5,14.5,0,0,1,14.5-14.5H979a14.5,14.5,0,0,1,14.45,13.37c0,.37.05.75.05,1.13Z"/><path class="cls-3" d="M568.51,329.86a2.56,2.56,0,1,0,0,5.12H688.93a2.56,2.56,0,1,0,0-5.12Z"/><path class="cls-3" d="M568.51,350.33a2.56,2.56,0,1,0,0,5.11H688.93a2.56,2.56,0,1,0,0-5.11Z"/><path class="cls-3" d="M651.9,350.33a2.56,2.56,0,1,0,0,5.11H772.33a2.56,2.56,0,1,0,0-5.11Z"/><path class="cls-3" d="M899.93,228.94a2.56,2.56,0,1,0,0-5.11H848.07a2.56,2.56,0,1,0,0,5.11Z"/><path class="cls-3" d="M914.6,228.94a2.56,2.56,0,1,0,0-5.11H862.78a2.56,2.56,0,1,0,0,5.11Z"/><path class="cls-3" d="M899.51,249.74a2.56,2.56,0,1,0,0-5.11H847.69a2.56,2.56,0,0,0,0,5.11Z"/><path class="cls-3" d="M940.39,249.74a2.56,2.56,0,1,0,0-5.11H888.57a2.56,2.56,0,1,0,0,5.11Z"/><path class="cls-3" d="M686.32,74.19a2.56,2.56,0,1,0,0-5.11H634.51a2.56,2.56,0,1,0,0,5.11Z"/><path class="cls-3" d="M738.55,99.78a2.56,2.56,0,1,0,0-5.12h-51.8a2.56,2.56,0,1,0,0,5.12Z"/><path class="cls-3" d="M686.32,99.78a2.56,2.56,0,0,0,0-5.12H634.51a2.56,2.56,0,1,0,0,5.12Z"/><path id="b1bce2c7-12e1-4551-8863-d6d142670d08" class="cls-2" d="M858.63,508H570.36a5.35,5.35,0,0,1-5.33-5.34V376.13a5.34,5.34,0,0,1,5.33-5.34H858.63a5.35,5.35,0,0,1,5.34,5.34V502.64A5.35,5.35,0,0,1,858.63,508Z"/><path id="b8b7ef86-e6be-48b5-b7f8-365881aa5bd2" class="cls-4" d="M629.07,414.89a3.63,3.63,0,0,0,0,7.25H799.93a3.63,3.63,0,0,0,0-7.25Z"/><path id="a9b62e3b-06cf-4a55-8c8f-4aeba6e5e4c7" class="cls-4" d="M629.07,435.89a3.63,3.63,0,0,0,0,7.25H799.93a3.63,3.63,0,0,0,0-7.25Z"/><path id="a12f9c39-a43a-4056-b48c-3363dc06a37f" class="cls-4" d="M629.07,456.63a3.63,3.63,0,0,0,0,7.25h73.52a3.63,3.63,0,0,0,0-7.25Z"/></svg>