<svg id="b4e3060f-5130-489b-849d-7962070b1d51" xmlns="http://www.w3.org/2000/svg" viewBox="0 0 1094.09 509.55"><defs><style>.cls-1{fill:#3f3d56;}.cls-2{fill:#5490f4;}.cls-3{fill:#e6e6e6;}.cls-4{fill:#fff;}</style></defs><path class="cls-1" d="M691.27,0h-272a14.5,14.5,0,0,0-14.5,14.5V157.77a14.5,14.5,0,0,0,14.5,14.49h272a14.5,14.5,0,0,0,14.5-14.49V14.5A14.5,14.5,0,0,0,691.27,0Zm12.79,157.77a12.79,12.79,0,0,1-12.79,12.79h-272a12.79,12.79,0,0,1-12.79-12.79h0V14.5A12.78,12.78,0,0,1,419.23,1.71h272A12.79,12.79,0,0,1,704.06,14.5Z"/><path class="cls-2" d="M532.22,139.86h-87a7.27,7.27,0,0,1-7.25-7.25V36.24A7.27,7.27,0,0,1,445.24,29h87a7.26,7.26,0,0,1,7.25,7.25v96.37a7.24,7.24,0,0,1-7.23,7.25Z"/><path class="cls-1" d="M490.05,119.79c-1.91-.06-4.3-.12-6.14-1.47a4.71,4.71,0,0,1-1.86-3.52,3.24,3.24,0,0,1,1.08-2.61,4.1,4.1,0,0,1,3.87-.55l-1.56-11.45,1.15-.15,1.89,13.45-1-.44c-1.11-.51-2.64-.77-3.59,0a2.08,2.08,0,0,0-.66,1.71,3.5,3.5,0,0,0,1.38,2.63c1.42,1,3.32,1.18,5.48,1.24Z"/><rect class="cls-1" x="473.51" y="101.18" width="6.25" height="1.16"/><rect class="cls-1" x="493.23" y="101.18" width="6.25" height="1.16"/><path class="cls-1" d="M462.65,85.16c-5-.57-8.92-5.39-9.38-10.29-.5-5.81,2.89-11.35,7.53-14.6,4.86-3.41,10.93-4.85,16.79-5.16A46.11,46.11,0,0,1,509.14,65.5c4.39,3.64,8.53,8.29,10.05,13.9,1.35,4.88.25,10.4-3.67,13.82a9.29,9.29,0,0,1-7.11,2.19,17.8,17.8,0,0,1-8.28-3.68c-4.73-3.42-8.61-8.22-14.37-10-4.22-1.32-9.69-.16-12.28,3.65a7,7,0,0,0-1.1,2.92.85.85,0,0,0,.57,1.06h0a.87.87,0,0,0,1.07-.57v0c.67-4.81,6.59-6.6,10.73-5.51,6.06,1.61,10.12,7,15.08,10.43a18.27,18.27,0,0,0,8.77,3.51,10.87,10.87,0,0,0,7.68-2.36c4.26-3.34,5.87-9.1,4.93-14.29-1.09-6-5.12-11.15-9.56-15.13A47.83,47.83,0,0,0,479,53.32c-6.13.13-12.53,1.4-17.81,4.64-5.12,3.15-9.09,8.41-9.61,14.5A13.7,13.7,0,0,0,459,85.83a11.17,11.17,0,0,0,3.71,1c1.11.13,1.1-1.61,0-1.7Z"/><path class="cls-1" d="M828.18,277.83H474.27a16.2,16.2,0,0,0-16.2,16.2h0V343.5a16.2,16.2,0,0,0,16.2,16.2H828.18a16.2,16.2,0,0,0,16.2-16.2V294a16.2,16.2,0,0,0-16.2-16.2Zm14.49,65.67A14.49,14.49,0,0,1,828.18,358H474.27a14.5,14.5,0,0,1-14.5-14.49V294a14.5,14.5,0,0,1,14.5-14.49H828.18A14.49,14.49,0,0,1,842.67,294Z"/><path class="cls-2" d="M536.34,291.48a27.29,27.29,0,1,0,27.28,27.29A27.29,27.29,0,0,0,536.34,291.48Z"/><path class="cls-1" d="M955.6,189.87a16.2,16.2,0,0,0-16.16-15.06H769.73a16.2,16.2,0,0,0-16.2,16.2v49.46a16.2,16.2,0,0,0,16.2,16.2H939.44a16.2,16.2,0,0,0,16.2-16.2h0V191C955.64,190.62,955.63,190.24,955.6,189.87Zm-1.66,50.6a14.5,14.5,0,0,1-14.5,14.5H769.73a14.5,14.5,0,0,1-14.49-14.5V191a14.5,14.5,0,0,1,14.49-14.5H939.44a14.51,14.51,0,0,1,14.45,13.37c0,.37.05.75.05,1.13Z"/><path class="cls-3" d="M586.93,307.69a2.56,2.56,0,1,0,0,5.11H707.35a2.56,2.56,0,1,0,0-5.11Z"/><path class="cls-3" d="M586.93,328.15a2.56,2.56,0,1,0,0,5.12H707.35a2.56,2.56,0,0,0,0-5.12Z"/><path class="cls-3" d="M670.33,328.15a2.56,2.56,0,0,0,0,5.12H790.76a2.56,2.56,0,0,0,0-5.12Z"/><path class="cls-3" d="M860.39,208.06a2.56,2.56,0,0,0,0-5.11H808.53a2.56,2.56,0,1,0,0,5.11Z"/><path class="cls-3" d="M875.06,208.06a2.56,2.56,0,1,0,0-5.11H823.24a2.56,2.56,0,1,0,0,5.11Z"/><path class="cls-3" d="M860,228.86a2.56,2.56,0,1,0,0-5.11H808.15a2.56,2.56,0,1,0,0,5.11Z"/><path class="cls-3" d="M900.85,228.86a2.56,2.56,0,1,0,0-5.11H849a2.56,2.56,0,1,0,0,5.11Z"/><path class="cls-3" d="M622.79,74.19a2.56,2.56,0,1,0,0-5.11H571a2.56,2.56,0,1,0,0,5.11Z"/><path class="cls-3" d="M675,99.78a2.56,2.56,0,1,0,0-5.12h-51.8a2.56,2.56,0,0,0,0,5.12Z"/><path class="cls-3" d="M622.79,99.78a2.56,2.56,0,1,0,0-5.12H571a2.56,2.56,0,0,0,0,5.12Z"/><path id="b1bce2c7-12e1-4551-8863-d6d142670d08" class="cls-2" d="M874.68,509.55H586.41a5.35,5.35,0,0,1-5.34-5.34V377.7a5.35,5.35,0,0,1,5.34-5.34H874.68A5.35,5.35,0,0,1,880,377.7V504.21A5.34,5.34,0,0,1,874.68,509.55Z"/><path id="b8b7ef86-e6be-48b5-b7f8-365881aa5bd2" class="cls-4" d="M645.11,416.46a3.63,3.63,0,0,0,0,7.25H816a3.63,3.63,0,0,0,0-7.25Z"/><path id="a9b62e3b-06cf-4a55-8c8f-4aeba6e5e4c7" class="cls-4" d="M645.11,437.46a3.63,3.63,0,0,0,0,7.25H816a3.63,3.63,0,0,0,0-7.25Z"/><path id="a12f9c39-a43a-4056-b48c-3363dc06a37f" class="cls-4" d="M645.11,458.2a3.63,3.63,0,0,0,0,7.25h73.52a3.63,3.63,0,0,0,0-7.25Z"/></svg>