<svg id="b4e3060f-5130-489b-849d-7962070b1d51" xmlns="http://www.w3.org/2000/svg" viewBox="0 0 990.78 509.55"><defs><style>.cls-1{fill:#3f3d56;}.cls-2{fill:#5490f4;}.cls-3{fill:#e6e6e6;}.cls-4{fill:#fff;}</style></defs><path class="cls-1" d="M516.36,0h-272a14.5,14.5,0,0,0-14.5,14.5V157.77a14.5,14.5,0,0,0,14.5,14.49h272a14.49,14.49,0,0,0,14.49-14.49V14.5A14.5,14.5,0,0,0,516.36,0Zm12.79,157.77a12.79,12.79,0,0,1-12.79,12.79h-272a12.8,12.8,0,0,1-12.8-12.79h0V14.5a12.79,12.79,0,0,1,12.8-12.79h272A12.79,12.79,0,0,1,529.15,14.5Z"/><path class="cls-2" d="M357.31,139.86h-87a7.26,7.26,0,0,1-7.25-7.25V36.24A7.27,7.27,0,0,1,270.33,29h87a7.26,7.26,0,0,1,7.25,7.25v96.37a7.24,7.24,0,0,1-7.23,7.25Z"/><path class="cls-1" d="M315.14,119.79c-1.92-.06-4.31-.12-6.15-1.47a4.73,4.73,0,0,1-1.85-3.52,3.2,3.2,0,0,1,1.08-2.61,4.1,4.1,0,0,1,3.87-.55l-1.56-11.45,1.15-.15,1.88,13.45-1-.44c-1.12-.51-2.64-.77-3.59,0a2.09,2.09,0,0,0-.67,1.71,3.51,3.51,0,0,0,1.39,2.63c1.42,1,3.32,1.18,5.48,1.24Z"/><rect class="cls-1" x="298.6" y="101.18" width="6.25" height="1.16"/><rect class="cls-1" x="318.31" y="101.18" width="6.25" height="1.16"/><path class="cls-1" d="M287.74,85.16c-5-.57-8.93-5.39-9.38-10.29-.5-5.81,2.88-11.35,7.53-14.6,4.86-3.41,10.92-4.85,16.78-5.16A46.12,46.12,0,0,1,334.23,65.5c4.39,3.64,8.52,8.29,10,13.9,1.36,4.88.26,10.4-3.66,13.82a9.32,9.32,0,0,1-7.12,2.19,17.76,17.76,0,0,1-8.27-3.68c-4.73-3.42-8.61-8.22-14.37-10-4.22-1.32-9.69-.16-12.28,3.65a7.18,7.18,0,0,0-1.11,2.92.86.86,0,0,0,.58,1.06h0a.85.85,0,0,0,1.06-.57v0c.68-4.81,6.59-6.6,10.74-5.51,6.05,1.61,10.11,7,15.08,10.43a18.23,18.23,0,0,0,8.77,3.51,10.88,10.88,0,0,0,7.68-2.36c4.26-3.34,5.86-9.1,4.93-14.29-1.1-6-5.12-11.15-9.56-15.13a47.83,47.83,0,0,0-32.69-12.07c-6.13.13-12.54,1.4-17.82,4.64-5.11,3.15-9.09,8.41-9.61,14.5a13.71,13.71,0,0,0,7.4,13.37,11.17,11.17,0,0,0,3.71,1c1.1.13,1.1-1.61,0-1.7Z"/><path class="cls-1" d="M597.56,217.81H243.65A16.2,16.2,0,0,0,227.44,234h0v49.46a16.21,16.21,0,0,0,16.21,16.21H597.56a16.21,16.21,0,0,0,16.2-16.21V234a16.2,16.2,0,0,0-16.2-16.2Zm14.49,65.66A14.5,14.5,0,0,1,597.56,298H243.65a14.5,14.5,0,0,1-14.5-14.5V234a14.5,14.5,0,0,1,14.5-14.5H597.56A14.5,14.5,0,0,1,612.05,234Z"/><path class="cls-2" d="M305.71,231.46A27.29,27.29,0,1,0,333,258.75,27.29,27.29,0,0,0,305.71,231.46Z"/><path class="cls-1" d="M824.63,125a16.2,16.2,0,0,0-16.16-15.06H638.77a16.2,16.2,0,0,0-16.21,16.2v49.46a16.2,16.2,0,0,0,16.21,16.2h169.7a16.2,16.2,0,0,0,16.2-16.2h0V126.12C824.67,125.73,824.66,125.35,824.63,125ZM823,175.58a14.5,14.5,0,0,1-14.5,14.5H638.77a14.5,14.5,0,0,1-14.5-14.5V126.12a14.5,14.5,0,0,1,14.5-14.5h169.7A14.51,14.51,0,0,1,822.92,125c0,.37.05.75.05,1.13Z"/><path class="cls-3" d="M356.31,247.66a2.56,2.56,0,1,0,0,5.12H476.73a2.56,2.56,0,0,0,0-5.12Z"/><path class="cls-3" d="M356.31,268.13a2.56,2.56,0,0,0,0,5.12H476.73a2.56,2.56,0,0,0,0-5.12Z"/><path class="cls-3" d="M439.7,268.13a2.56,2.56,0,0,0,0,5.12H560.13a2.56,2.56,0,1,0,0-5.12Z"/><path class="cls-3" d="M729.42,143.17a2.56,2.56,0,1,0,0-5.11H677.56a2.56,2.56,0,1,0,0,5.11Z"/><path class="cls-3" d="M744.09,143.17a2.56,2.56,0,1,0,0-5.11H692.27a2.56,2.56,0,1,0,0,5.11Z"/><path class="cls-3" d="M729,164a2.56,2.56,0,1,0,0-5.11H677.18a2.56,2.56,0,0,0,0,5.11Z"/><path class="cls-3" d="M769.88,164a2.56,2.56,0,1,0,0-5.11H718.06a2.56,2.56,0,1,0,0,5.11Z"/><path class="cls-3" d="M447.88,74.19a2.56,2.56,0,1,0,0-5.11H396.06a2.56,2.56,0,1,0,0,5.11Z"/><path class="cls-3" d="M500.11,99.78a2.56,2.56,0,0,0,0-5.12H448.3a2.56,2.56,0,0,0,0,5.12Z"/><path class="cls-3" d="M447.88,99.78a2.56,2.56,0,0,0,0-5.12H396.06a2.56,2.56,0,1,0,0,5.12Z"/><path id="b1bce2c7-12e1-4551-8863-d6d142670d08" class="cls-2" d="M524.47,509.67H236.2a5.35,5.35,0,0,1-5.34-5.33V377.83a5.35,5.35,0,0,1,5.34-5.34H524.47a5.34,5.34,0,0,1,5.34,5.34V504.34A5.34,5.34,0,0,1,524.47,509.67Z"/><path id="b8b7ef86-e6be-48b5-b7f8-365881aa5bd2" class="cls-4" d="M294.91,416.58a3.63,3.63,0,0,0,0,7.25H465.77a3.63,3.63,0,0,0,0-7.25Z"/><path id="a9b62e3b-06cf-4a55-8c8f-4aeba6e5e4c7" class="cls-4" d="M294.91,437.58a3.63,3.63,0,0,0,0,7.25H465.77a3.63,3.63,0,0,0,0-7.25Z"/><path id="a12f9c39-a43a-4056-b48c-3363dc06a37f" class="cls-4" d="M294.91,458.33a3.63,3.63,0,0,0,0,7.25h73.52a3.63,3.63,0,0,0,0-7.25Z"/><path id="b281e673-bc66-4b3c-8141-26a0e4a40fd7" class="cls-1" d="M862.31,427.4H574.05a5.34,5.34,0,0,1-5.34-5.33V350.56a5.34,5.34,0,0,1,5.34-5.34H862.31a5.34,5.34,0,0,1,5.34,5.34v71.51A5.34,5.34,0,0,1,862.31,427.4Zm-288.26-80a3.2,3.2,0,0,0-3.2,3.2v71.51a3.21,3.21,0,0,0,3.2,3.2H862.31a3.21,3.21,0,0,0,3.2-3.2v-71.5a3.2,3.2,0,0,0-3.2-3.2Z"/><circle id="b30606c0-bedc-4458-8bc1-74f9b5197cfe" class="cls-3" cx="618.84" cy="385.96" r="21.74"/><path id="b0251ef9-ec49-4884-8989-e65898cec086" class="cls-3" d="M669.06,372.22a3.63,3.63,0,0,0,0,7.25H839.92a3.63,3.63,0,0,0,0-7.25Z"/><path id="f3fbb845-d219-495e-9ae9-9928c3e8cc79" class="cls-3" d="M669.06,394a3.62,3.62,0,1,0,0,7.24h73.52a3.62,3.62,0,1,0,0-7.24Z"/></svg>