<svg id="b4e3060f-5130-489b-849d-7962070b1d51" xmlns="http://www.w3.org/2000/svg" viewBox="0 0 897.5 585.99"><defs><style>.cls-1{fill:#ccc;}.cls-2{fill:#3f3d56;}.cls-3{fill:#5490f4;}</style></defs><path class="cls-1" d="M597,536.18l-1.11-1.65q2.48-1.68,4.92-3.39l1.15,1.63C600.3,533.93,598.65,535.06,597,536.18Z"/><path class="cls-1" d="M152.07,374.8q-.84-2.88-1.62-5.8l1.94-.51c.51,1.92,1.05,3.84,1.6,5.76Z"/><path class="cls-1" d="M722.69,260.39c-.22-2-.46-4-.72-5.94l2-.26q.4,3,.73,6Z"/><path class="cls-1" d="M688.49,437.43l-1.74-1q1.47-2.6,2.89-5.22l1.76.95C690.45,433.93,689.48,435.69,688.49,437.43Z"/><path class="cls-1" d="M170.67,167.93l-1.8-.86c.86-1.81,1.74-3.62,2.64-5.41l1.79.9Q172,165.23,170.67,167.93Z"/><path class="cls-1" d="M691.77,158.78c-.92-1.77-1.86-3.52-2.82-5.27l1.76-1q1.44,2.64,2.83,5.31Z"/><path class="cls-2" d="M336,167.5H17a17,17,0,0,0-17,17v168a17,17,0,0,0,17,17H336a17,17,0,0,0,17-17v-168A17,17,0,0,0,336,167.5Zm15,185a15,15,0,0,1-15,15H17a15,15,0,0,1-15-15v-168a15,15,0,0,1,15-15H336a15,15,0,0,1,15,15Z"/><path class="cls-1" d="M311.94,291.5h-112a8,8,0,0,1,0-16h112a8,8,0,1,1,0,16Z"/><path class="cls-1" d="M241.94,257.5h-42a8,8,0,0,1,0-16h42a8,8,0,0,1,0,16Z"/><path class="cls-3" d="M149.5,331.5H47.5A8.52,8.52,0,0,1,39,323V210a8.51,8.51,0,0,1,8.5-8.5h102A8.51,8.51,0,0,1,158,210V323A8.52,8.52,0,0,1,149.5,331.5Z"/><path class="cls-2" d="M100,308c-2.25-.06-5-.14-7.2-1.71a5.54,5.54,0,0,1-2.18-4.13,3.7,3.7,0,0,1,1.27-3.06,4.77,4.77,0,0,1,4.54-.65L94.64,285,96,284.8l2.16,15.78L97,300.06c-1.31-.6-3.1-.9-4.21,0a2.37,2.37,0,0,0-.79,2,4.22,4.22,0,0,0,1.62,3.08c1.68,1.22,3.91,1.38,6.44,1.45Z"/><rect class="cls-2" x="80.64" y="286.14" width="7.33" height="1.36"/><rect class="cls-2" x="103.77" y="286.14" width="7.33" height="1.36"/><path class="cls-2" d="M67.91,267.36c-5.9-.68-10.47-6.33-11-12.06-.6-6.83,3.38-13.31,8.83-17.14,5.7-4,12.81-5.68,19.68-6a54.13,54.13,0,0,1,37,12.19c5.15,4.28,10,9.73,11.78,16.31,1.58,5.71.3,12.19-4.3,16.19a10.83,10.83,0,0,1-8.34,2.57c-3.57-.37-6.86-2.25-9.71-4.32-5.54-4-10.09-9.64-16.84-11.74-5-1.55-11.38-.19-14.4,4.29a8.07,8.07,0,0,0-1.3,3.41,1.06,1.06,0,0,0,.71,1.26,1,1,0,0,0,1.26-.72c.79-5.64,7.72-7.74,12.59-6.45,7.09,1.88,11.86,8.21,17.68,12.23a21.57,21.57,0,0,0,10.29,4.11,12.83,12.83,0,0,0,9-2.76c5-3.93,6.87-10.68,5.77-16.76-1.27-7-6-13.08-11.21-17.75A56.11,56.11,0,0,0,87.06,230c-7.2.17-14.7,1.65-20.9,5.45-6,3.69-10.65,9.86-11.26,17-.54,6.31,2.85,12.92,8.66,15.68a13.53,13.53,0,0,0,4.35,1.23c1.31.15,1.29-1.89,0-2Z"/><path class="cls-2" d="M845.44,436.32h-415a19,19,0,0,0-19,19v58a19,19,0,0,0,19,19h415a19,19,0,0,0,19-19v-58A19,19,0,0,0,845.44,436.32Zm17,77a17,17,0,0,1-17,17h-415a17,17,0,0,1-17-17v-58a17,17,0,0,1,17-17h415a17,17,0,0,1,17,17Z"/><path class="cls-1" d="M719.61,511.32h-229a8,8,0,0,1,0-16h229a8,8,0,0,1,0,16Z"/><path class="cls-1" d="M604.61,477.32h-114a8,8,0,0,1,0-16h114a8,8,0,0,1,0,16Z"/><path class="cls-2" d="M819.39,176a19,19,0,0,0-18.95-17.68h-199a19,19,0,0,0-19,19v58a19,19,0,0,0,19,19h199a19,19,0,0,0,19-19v-58C819.44,176.88,819.42,176.44,819.39,176Zm-1.95,59.32a17,17,0,0,1-17,17h-199a17,17,0,0,1-17-17v-58a17,17,0,0,1,17-17h199A17,17,0,0,1,817.38,176q.06.65.06,1.32Z"/><path class="cls-1" d="M749.94,231.32h-98a8,8,0,0,1,0-16h98a8,8,0,0,1,0,16Z"/><path class="cls-1" d="M719.94,197.32h-68a8,8,0,0,1,0-16h68a8,8,0,0,1,0,16Z"/></svg>