<svg id="b4e3060f-5130-489b-849d-7962070b1d51" xmlns="http://www.w3.org/2000/svg" viewBox="0 0 1063.57 509.55"><defs><style>.cls-1{fill:#5490f4;}.cls-2{fill:#3f3d56;}.cls-3{fill:#e6e6e6;}.cls-4{fill:#fff;}</style></defs><path class="cls-1" d="M430.09,139.86h-87a7.27,7.27,0,0,1-7.25-7.25V36.24A7.27,7.27,0,0,1,343.11,29h87a7.26,7.26,0,0,1,7.25,7.25v96.37a7.24,7.24,0,0,1-7.23,7.25Z"/><path class="cls-2" d="M387.92,119.79c-1.92-.06-4.3-.12-6.15-1.47a4.73,4.73,0,0,1-1.85-3.52,3.24,3.24,0,0,1,1.08-2.61,4.1,4.1,0,0,1,3.87-.55l-1.56-11.45,1.15-.15,1.89,13.45-1-.44c-1.11-.51-2.64-.77-3.59,0a2.08,2.08,0,0,0-.66,1.71,3.5,3.5,0,0,0,1.38,2.63c1.42,1,3.32,1.18,5.48,1.24Z"/><rect class="cls-2" x="371.38" y="101.18" width="6.25" height="1.16"/><rect class="cls-2" x="391.1" y="101.18" width="6.25" height="1.16"/><path class="cls-2" d="M360.52,85.16c-5-.57-8.93-5.39-9.38-10.29-.5-5.81,2.89-11.35,7.53-14.6,4.86-3.41,10.93-4.85,16.79-5.16A46.11,46.11,0,0,1,407,65.5c4.39,3.64,8.53,8.29,10,13.9,1.36,4.88.26,10.4-3.66,13.82a9.29,9.29,0,0,1-7.11,2.19A17.8,17.8,0,0,1,398,91.73c-4.73-3.42-8.61-8.22-14.37-10-4.22-1.32-9.69-.16-12.28,3.65a7,7,0,0,0-1.1,2.92.85.85,0,0,0,.57,1.06h0a.85.85,0,0,0,1.06-.57l0,0c.67-4.81,6.59-6.6,10.73-5.51,6.06,1.61,10.12,7,15.08,10.43a18.27,18.27,0,0,0,8.77,3.51,10.87,10.87,0,0,0,7.68-2.36c4.26-3.34,5.87-9.1,4.93-14.29-1.09-6-5.12-11.15-9.56-15.13a47.83,47.83,0,0,0-32.69-12.07c-6.13.13-12.53,1.4-17.81,4.64-5.12,3.15-9.09,8.41-9.61,14.5a13.7,13.7,0,0,0,7.39,13.37,11.17,11.17,0,0,0,3.71,1c1.11.13,1.1-1.61,0-1.7Z"/><path class="cls-1" d="M442.34,266.43a27.29,27.29,0,1,0,27.29,27.29A27.29,27.29,0,0,0,442.34,266.43Z"/><path class="cls-3" d="M492.94,282.64a2.56,2.56,0,1,0,0,5.11H613.36a2.56,2.56,0,1,0,0-5.11Z"/><path class="cls-3" d="M492.94,303.1a2.56,2.56,0,0,0,0,5.12H613.36a2.56,2.56,0,0,0,0-5.12Z"/><path class="cls-3" d="M576.33,303.1a2.56,2.56,0,0,0,0,5.12H696.76a2.56,2.56,0,1,0,0-5.12Z"/><path class="cls-3" d="M802.2,143.17a2.56,2.56,0,1,0,0-5.11H750.34a2.56,2.56,0,1,0,0,5.11Z"/><path class="cls-3" d="M816.88,143.17a2.56,2.56,0,0,0,0-5.11H765.05a2.56,2.56,0,1,0,0,5.11Z"/><path class="cls-3" d="M801.78,164a2.56,2.56,0,1,0,0-5.11H750a2.56,2.56,0,1,0,0,5.11Z"/><path class="cls-3" d="M842.66,164a2.56,2.56,0,1,0,0-5.11H790.84a2.56,2.56,0,1,0,0,5.11Z"/><path class="cls-3" d="M520.66,74.19a2.56,2.56,0,1,0,0-5.11H468.84a2.56,2.56,0,0,0,0,5.11Z"/><path class="cls-3" d="M572.89,99.78a2.56,2.56,0,1,0,0-5.12h-51.8a2.56,2.56,0,0,0,0,5.12Z"/><path class="cls-3" d="M520.66,99.78a2.56,2.56,0,1,0,0-5.12H468.84a2.56,2.56,0,0,0,0,5.12Z"/><path id="b1bce2c7-12e1-4551-8863-d6d142670d08" class="cls-1" d="M597.25,509.67H309a5.34,5.34,0,0,1-5.34-5.33V377.83a5.34,5.34,0,0,1,5.34-5.34H597.25a5.34,5.34,0,0,1,5.34,5.34V504.34A5.34,5.34,0,0,1,597.25,509.67Z"/><path id="b8b7ef86-e6be-48b5-b7f8-365881aa5bd2" class="cls-4" d="M367.69,416.58a3.63,3.63,0,0,0,0,7.25H538.55a3.63,3.63,0,0,0,0-7.25Z"/><path id="a9b62e3b-06cf-4a55-8c8f-4aeba6e5e4c7" class="cls-4" d="M367.69,437.58a3.63,3.63,0,0,0,0,7.25H538.55a3.63,3.63,0,0,0,0-7.25Z"/><path id="a12f9c39-a43a-4056-b48c-3363dc06a37f" class="cls-4" d="M367.69,458.33a3.63,3.63,0,0,0,0,7.25h73.52a3.63,3.63,0,0,0,0-7.25Z"/><path class="cls-2" d="M604.55,332.88H369.41a2.65,2.65,0,0,1-2.65-2.64V272.9a5.15,5.15,0,0,1-1.76-.35v57.69a4.43,4.43,0,0,0,4.41,4.41h234.7A5.82,5.82,0,0,1,604.55,332.88Z"/><path class="cls-2" d="M366.83,313.26V258.21a2.65,2.65,0,0,1,2.65-2.65H598.9a4.59,4.59,0,0,1-.1-1.77H369.48a4.43,4.43,0,0,0-4.41,4.42v55.13A5.45,5.45,0,0,1,366.83,313.26Z"/><path class="cls-2" d="M747.63,258.21v56.45l1.76,0V258.21a4.43,4.43,0,0,0-4.41-4.42H514a5.2,5.2,0,0,1-.37,1.77H745A2.65,2.65,0,0,1,747.63,258.21Z"/><path class="cls-2" d="M747.63,274.05v56.19a2.65,2.65,0,0,1-2.65,2.64H511.17c.16.18.31.37.47.54a4.88,4.88,0,0,1,.86,1.23H745a4.43,4.43,0,0,0,4.41-4.41V274Z"/><path class="cls-2" d="M696.65,170.76V114.34a2.65,2.65,0,0,1,2.65-2.65H869a5.87,5.87,0,0,1-.25-1.77H699.3a4.43,4.43,0,0,0-4.41,4.42v56.17Z"/><path class="cls-2" d="M869.87,189.79H699.3a2.65,2.65,0,0,1-2.65-2.64v-52.1l-1.76.25v51.85a4.42,4.42,0,0,0,4.41,4.41H869.77A5.54,5.54,0,0,1,869.87,189.79Z"/><path class="cls-2" d="M895.56,129.85v57.3a2.65,2.65,0,0,1-2.65,2.64H723.6a5.27,5.27,0,0,1,.09,1.77H892.91a4.4,4.4,0,0,0,4.41-4.41V129.86Z"/><path class="cls-2" d="M723.52,111.69H892.91a2.64,2.64,0,0,1,2.65,2.65v56.74l1.76,0V114.34a4.42,4.42,0,0,0-4.41-4.42H723.55A5.85,5.85,0,0,1,723.52,111.69Z"/><path class="cls-2" d="M540.61,170.05H307a2.65,2.65,0,0,1-2.65-2.64V111.23H302.6v56.19a4.42,4.42,0,0,0,4.41,4.41H540.57A17.56,17.56,0,0,1,540.61,170.05Z"/><path class="cls-2" d="M601.91,113v54.28a2.65,2.65,0,0,1-2.65,2.64H363.13c.07.6.15,1.18.22,1.77H599.26a4.42,4.42,0,0,0,4.41-4.41V113Z"/><path class="cls-2" d="M302.6,74.63V126.8l1.76.33V74.63Z"/><path class="cls-2" d="M302.6,17.51V73h1.76V17.56Z"/><path class="cls-2" d="M304.36,61V4.42A2.65,2.65,0,0,1,307,1.77H542.24c0-.23,0-.45-.07-.68a5.59,5.59,0,0,1,0-1.09H307a4.44,4.44,0,0,0-4.41,4.42V61.24Z"/><path class="cls-2" d="M363.3,0c0,.58,0,1.15-.05,1.73h236A2.65,2.65,0,0,1,602,4.42V60.54l1.76-.14v-56A4.43,4.43,0,0,0,599.3,0h-236S363.31,0,363.3,0Z"/><path class="cls-2" d="M601.91,88.45l1.76-.34V36.77l-1.76.11Z"/><path class="cls-2" d="M602,77.84v54.3l1-.22a6.6,6.6,0,0,1,.73-.13v-54Z"/><path class="cls-2" d="M602,110.78v56.51a2.65,2.65,0,0,1-2.65,2.64H365.42c.15.6.29,1.19.4,1.77H599.3a4.4,4.4,0,0,0,4.41-4.41V110.6Z"/></svg>