<svg id="b61e48c1-5578-41dd-9a23-f8d90b26170f" xmlns="http://www.w3.org/2000/svg" viewBox="0 0 423.01 428.42"><defs><style>.cls-1{fill:#3f3d56;}.cls-2{fill:#5490f4;}.cls-3{fill:#e6e6e6;}</style></defs><path class="cls-1" d="M242.67,208.75H4.41A4.42,4.42,0,0,1,0,204.34v-59.1a4.43,4.43,0,0,1,4.41-4.42H242.67a4.43,4.43,0,0,1,4.41,4.42v59.1A4.42,4.42,0,0,1,242.67,208.75ZM4.41,142.59a2.65,2.65,0,0,0-2.65,2.65v59.1A2.65,2.65,0,0,0,4.41,207H242.67a2.65,2.65,0,0,0,2.65-2.64v-59.1a2.65,2.65,0,0,0-2.65-2.65Z"/><circle class="cls-2" cx="41.43" cy="172.52" r="17.97"/><path class="cls-3" d="M82.94,160.54a3,3,0,0,0,0,6H224.16a3,3,0,0,0,0-6H82.94Z"/><path class="cls-3" d="M82.94,178.51a3,3,0,0,0,0,6h60.77a3,3,0,0,0,0-6Z"/><path class="cls-1" d="M111.23,428.42H5.34A4.41,4.41,0,0,1,.93,424V313.72a4.41,4.41,0,0,1,4.41-4.41H111.23a4.41,4.41,0,0,1,4.41,4.41V424A4.41,4.41,0,0,1,111.23,428.42ZM5.34,311.08a2.65,2.65,0,0,0-2.65,2.64V424a2.65,2.65,0,0,0,2.65,2.64H111.23a2.65,2.65,0,0,0,2.65-2.64V313.72a2.65,2.65,0,0,0-2.65-2.64Z"/><path class="cls-3" d="M27.9,332.05a3,3,0,0,0,0,6H88.67a3,3,0,0,0,0-6H27.9Z"/><path class="cls-3" d="M27.9,349.7a3,3,0,1,0,0,6H88.67a3,3,0,0,0,0-6Z"/><path class="cls-2" d="M58.29,405.68a18.86,18.86,0,1,1,18.85-18.86A18.86,18.86,0,0,1,58.29,405.68Z"/><path class="cls-1" d="M312.7,53.18H418.59A4.43,4.43,0,0,1,423,57.6V167.88a4.43,4.43,0,0,1-4.42,4.41H312.7a4.42,4.42,0,0,1-4.41-4.41V57.6A4.43,4.43,0,0,1,312.7,53.18ZM418.59,170.53a2.65,2.65,0,0,0,2.65-2.65V57.6A2.64,2.64,0,0,0,418.59,55H312.7a2.65,2.65,0,0,0-2.65,2.65V167.88a2.67,2.67,0,0,0,2.65,2.65Z"/><path class="cls-3" d="M396,149.55a3,3,0,1,0,0-6H335.27a3,3,0,1,0,0,6Z"/><path class="cls-3" d="M396,131.9a3,3,0,0,0,0-6H335.27a3,3,0,1,0,0,6Z"/><path class="cls-2" d="M365.65,75.93a18.86,18.86,0,1,1-18.86,18.85A18.85,18.85,0,0,1,365.65,75.93Z"/><path class="cls-2" d="M297.19,342.94H197.85l23.38-40.49a4.76,4.76,0,0,1,6.52-1.75,4.81,4.81,0,0,1,1.75,1.75l10,17.29,17-29.41a6,6,0,0,1,10.35,0Z"/><path class="cls-1" d="M297.28,342.93H191.39a4.42,4.42,0,0,1-4.41-4.42v-59.1a4.41,4.41,0,0,1,4.41-4.41H297.28a4.41,4.41,0,0,1,4.41,4.41v59.1A4.42,4.42,0,0,1,297.28,342.93ZM191.39,276.76a2.66,2.66,0,0,0-2.65,2.65v59.1a2.65,2.65,0,0,0,2.65,2.65H297.28a2.65,2.65,0,0,0,2.65-2.65v-59.1a2.66,2.66,0,0,0-2.65-2.65Z"/><path class="cls-2" d="M113.19,67.94H13.85L37.23,27.45a4.76,4.76,0,0,1,6.52-1.75,4.81,4.81,0,0,1,1.75,1.75l10,17.29,17-29.41a6,6,0,0,1,10.35,0Z"/><path class="cls-1" d="M113.28,67.93H7.39A4.42,4.42,0,0,1,3,63.51V4.41A4.41,4.41,0,0,1,7.39,0H113.28a4.41,4.41,0,0,1,4.41,4.41v59.1A4.42,4.42,0,0,1,113.28,67.93ZM7.39,1.76A2.66,2.66,0,0,0,4.74,4.41v59.1a2.65,2.65,0,0,0,2.65,2.65H113.28a2.65,2.65,0,0,0,2.65-2.65V4.41a2.66,2.66,0,0,0-2.65-2.65Z"/></svg>