<svg id="b61e48c1-5578-41dd-9a23-f8d90b26170f" xmlns="http://www.w3.org/2000/svg" viewBox="0 0 523.01 428.42"><defs><style>.cls-1{fill:#3f3d56;}.cls-2{fill:#5490f4;}.cls-3{fill:#e6e6e6;}</style></defs><path class="cls-1" d="M342.67,208.75H104.41a4.42,4.42,0,0,1-4.41-4.41v-59.1a4.43,4.43,0,0,1,4.41-4.42H342.67a4.43,4.43,0,0,1,4.41,4.42v59.1A4.42,4.42,0,0,1,342.67,208.75ZM104.41,142.59a2.65,2.65,0,0,0-2.65,2.65v59.1a2.65,2.65,0,0,0,2.65,2.64H342.67a2.65,2.65,0,0,0,2.65-2.64v-59.1a2.65,2.65,0,0,0-2.65-2.65Z"/><circle class="cls-2" cx="141.43" cy="172.52" r="17.97"/><path class="cls-3" d="M182.94,160.54a3,3,0,0,0,0,6H324.16a3,3,0,0,0,0-6H182.94Z"/><path class="cls-3" d="M182.94,178.51a3,3,0,0,0,0,6h60.77a3,3,0,0,0,0-6Z"/><path class="cls-1" d="M211.23,428.42H105.34a4.41,4.41,0,0,1-4.41-4.41V313.72a4.41,4.41,0,0,1,4.41-4.41H211.23a4.41,4.41,0,0,1,4.41,4.41V424A4.41,4.41,0,0,1,211.23,428.42ZM105.34,311.08a2.65,2.65,0,0,0-2.65,2.64V424a2.65,2.65,0,0,0,2.65,2.64H211.23a2.65,2.65,0,0,0,2.65-2.64V313.72a2.65,2.65,0,0,0-2.65-2.64Z"/><path class="cls-3" d="M127.9,332.05a3,3,0,0,0,0,6h60.77a3,3,0,0,0,0-6H127.9Z"/><path class="cls-3" d="M127.9,349.7a3,3,0,1,0,0,6h60.77a3,3,0,0,0,0-6Z"/><path class="cls-2" d="M158.29,405.68a18.86,18.86,0,1,1,18.85-18.86A18.86,18.86,0,0,1,158.29,405.68Z"/><path class="cls-1" d="M412.7,53.18H518.59A4.43,4.43,0,0,1,523,57.6V167.88a4.43,4.43,0,0,1-4.42,4.41H412.7a4.42,4.42,0,0,1-4.41-4.41V57.6A4.43,4.43,0,0,1,412.7,53.18ZM518.59,170.53a2.65,2.65,0,0,0,2.65-2.65V57.6A2.64,2.64,0,0,0,518.59,55H412.7a2.65,2.65,0,0,0-2.65,2.65V167.88a2.67,2.67,0,0,0,2.65,2.65Z"/><path class="cls-3" d="M496,149.55a3,3,0,1,0,0-6H435.27a3,3,0,1,0,0,6Z"/><path class="cls-3" d="M496,131.9a3,3,0,0,0,0-6H435.27a3,3,0,1,0,0,6Z"/><path class="cls-2" d="M465.65,75.93a18.86,18.86,0,1,1-18.86,18.85A18.85,18.85,0,0,1,465.65,75.93Z"/><path class="cls-2" d="M397.19,342.94H297.85l23.38-40.49a4.76,4.76,0,0,1,6.52-1.75,4.81,4.81,0,0,1,1.75,1.75l10,17.29,17-29.41a6,6,0,0,1,10.35,0Z"/><path class="cls-1" d="M397.28,342.93H291.39a4.42,4.42,0,0,1-4.41-4.42v-59.1a4.41,4.41,0,0,1,4.41-4.41H397.28a4.41,4.41,0,0,1,4.41,4.41v59.1A4.42,4.42,0,0,1,397.28,342.93ZM291.39,276.76a2.66,2.66,0,0,0-2.65,2.65v59.1a2.65,2.65,0,0,0,2.65,2.65H397.28a2.65,2.65,0,0,0,2.65-2.65v-59.1a2.66,2.66,0,0,0-2.65-2.65Z"/><path class="cls-2" d="M213.19,67.94H113.85l23.38-40.49a4.76,4.76,0,0,1,6.52-1.75,4.81,4.81,0,0,1,1.75,1.75l10,17.29,17-29.41a6,6,0,0,1,10.35,0Z"/><path class="cls-1" d="M213.28,67.93H107.39A4.42,4.42,0,0,1,103,63.51V4.41A4.41,4.41,0,0,1,107.39,0H213.28a4.41,4.41,0,0,1,4.41,4.41v59.1A4.42,4.42,0,0,1,213.28,67.93ZM107.39,1.76a2.66,2.66,0,0,0-2.65,2.65v59.1a2.65,2.65,0,0,0,2.65,2.65H213.28a2.65,2.65,0,0,0,2.65-2.65V4.41a2.66,2.66,0,0,0-2.65-2.65Z"/></svg>