<svg id="abdd50a7-d504-42d6-abd9-1be1b582ab53" xmlns="http://www.w3.org/2000/svg" viewBox="0 0 888 542.26"><defs><style>.cls-1{fill:#3f3d56;}.cls-2{fill:#e6e6e6;}.cls-3{fill:#5490f4;}.cls-4{fill:#ccc;}.cls-5{fill:#fff;}</style></defs><path id="b281e673-bc66-4b3c-8141-26a0e4a40fd7" class="cls-1" d="M710.59,434.18H422.32a5.34,5.34,0,0,1-5.34-5.33V357.34a5.35,5.35,0,0,1,5.34-5.34H710.59a5.34,5.34,0,0,1,5.33,5.34v71.51A5.33,5.33,0,0,1,710.59,434.18ZM422.32,354.13a3.2,3.2,0,0,0-3.2,3.2v71.51a3.21,3.21,0,0,0,3.2,3.2H710.59a3.22,3.22,0,0,0,3.2-3.2v-71.5a3.21,3.21,0,0,0-3.2-3.2Z"/><circle id="b3fc6bd5-ca87-44d7-abba-b33fcf0fce6e" class="cls-2" cx="395.11" cy="498.74" r="21.74"/><path id="a4c0ef2a-4063-4b4c-b7a5-712e67abf83e" class="cls-2" d="M445.33,485a3.63,3.63,0,0,0,0,7.25H616.19a3.63,3.63,0,0,0,0-7.25Z"/><path id="b6aac15c-fc94-4bcf-bd22-2b2a2d48a317" class="cls-2" d="M445.33,506.75a3.62,3.62,0,0,0,0,7.24h73.53a3.62,3.62,0,1,0,0-7.24Z"/><circle id="b30606c0-bedc-4458-8bc1-74f9b5197cfe" class="cls-2" cx="467.11" cy="392.74" r="21.74"/><path id="b0251ef9-ec49-4884-8989-e65898cec086" class="cls-2" d="M517.33,379a3.63,3.63,0,0,0,0,7.25H688.19a3.63,3.63,0,0,0,0-7.25Z"/><path id="f3fbb845-d219-495e-9ae9-9928c3e8cc79" class="cls-2" d="M517.33,400.75a3.62,3.62,0,0,0,0,7.24h73.52a3.62,3.62,0,1,0,0-7.24Z"/><path id="e4b1ee1b-a1a6-4c2a-970c-d47d8b3fd870" class="cls-1" d="M654.59,257.18H366.32a5.34,5.34,0,0,1-5.34-5.33V5.34A5.35,5.35,0,0,1,366.32,0H654.59a5.34,5.34,0,0,1,5.33,5.34V251.85a5.33,5.33,0,0,1-5.33,5.33ZM366.32,2.13a3.2,3.2,0,0,0-3.2,3.2V251.85a3.21,3.21,0,0,0,3.2,3.2H654.59a3.22,3.22,0,0,0,3.2-3.2V5.34a3.21,3.21,0,0,0-3.2-3.2Z"/><circle id="b10e3043-e731-4e82-8fca-75f9298f00b8" class="cls-3" cx="411.11" cy="43.35" r="21.74"/><path id="b8c117d2-374b-429b-9a52-be2e8d6b8684" class="cls-4" d="M461.33,28.85a3.63,3.63,0,0,0,0,7.25H632.19a3.63,3.63,0,0,0,0-7.25Z"/><path id="b1daea5a-aca4-46bb-ab1c-9e5888030a38" class="cls-4" d="M461.33,50.6a3.63,3.63,0,0,0,0,7.25h73.52a3.63,3.63,0,1,0,0-7.25Z"/><path id="b1bce2c7-12e1-4551-8863-d6d142670d08" class="cls-3" d="M723.08,225.21H434.81a5.35,5.35,0,0,1-5.34-5.34V93.36A5.35,5.35,0,0,1,434.81,88H723.08a5.34,5.34,0,0,1,5.33,5.34V219.87A5.35,5.35,0,0,1,723.08,225.21Z"/><path id="b8b7ef86-e6be-48b5-b7f8-365881aa5bd2" class="cls-5" d="M493.51,132.12a3.62,3.62,0,0,0,0,7.24H664.37a3.62,3.62,0,1,0,0-7.24Z"/><path id="a9b62e3b-06cf-4a55-8c8f-4aeba6e5e4c7" class="cls-5" d="M493.51,153.12a3.62,3.62,0,0,0,0,7.24H664.37a3.62,3.62,0,1,0,0-7.24Z"/><path id="a12f9c39-a43a-4056-b48c-3363dc06a37f" class="cls-5" d="M493.51,173.86a3.63,3.63,0,0,0,0,7.25H567a3.63,3.63,0,0,0,0-7.25Z"/><path id="a71493d8-729a-4860-baf4-314f557d0142" class="cls-1" d="M638.59,540.18H350.32a5.34,5.34,0,0,1-5.34-5.33V463.34a5.35,5.35,0,0,1,5.34-5.34H638.59a5.34,5.34,0,0,1,5.33,5.34v71.51a5.33,5.33,0,0,1-5.33,5.33Zm-288.27-80a3.2,3.2,0,0,0-3.2,3.2v71.51a3.21,3.21,0,0,0,3.2,3.2H638.59a3.22,3.22,0,0,0,3.2-3.2v-71.5a3.21,3.21,0,0,0-3.2-3.2Z"/></svg>