<svg id="b4e3060f-5130-489b-849d-7962070b1d51" xmlns="http://www.w3.org/2000/svg" viewBox="0 0 1102.3 509.55"><defs><style>.cls-1{fill:#3f3d56;}.cls-2{fill:#5490f4;}.cls-3{fill:#e6e6e6;}.cls-4{fill:#fff;}</style></defs><path class="cls-1" d="M627.88,0h-272a14.5,14.5,0,0,0-14.5,14.5V157.77a14.5,14.5,0,0,0,14.5,14.49h272a14.5,14.5,0,0,0,14.5-14.49V14.5A14.5,14.5,0,0,0,627.88,0Zm12.79,157.77a12.79,12.79,0,0,1-12.79,12.79h-272a12.79,12.79,0,0,1-12.79-12.79h0V14.5A12.78,12.78,0,0,1,355.84,1.71h272A12.79,12.79,0,0,1,640.67,14.5Z"/><path class="cls-2" d="M468.83,139.86h-87a7.26,7.26,0,0,1-7.25-7.25V36.24A7.27,7.27,0,0,1,381.85,29h87a7.26,7.26,0,0,1,7.25,7.25v96.37a7.24,7.24,0,0,1-7.23,7.25Z"/><path class="cls-1" d="M426.66,119.79c-1.92-.06-4.3-.12-6.15-1.47a4.73,4.73,0,0,1-1.85-3.52,3.2,3.2,0,0,1,1.08-2.61,4.1,4.1,0,0,1,3.87-.55l-1.56-11.45,1.15-.15,1.88,13.45-1-.44c-1.12-.51-2.64-.77-3.59,0a2.05,2.05,0,0,0-.66,1.71,3.5,3.5,0,0,0,1.38,2.63c1.42,1,3.32,1.18,5.48,1.24Z"/><rect class="cls-1" x="410.12" y="101.18" width="6.25" height="1.16"/><rect class="cls-1" x="429.84" y="101.18" width="6.25" height="1.16"/><path class="cls-1" d="M399.26,85.16c-5-.57-8.93-5.39-9.38-10.29-.5-5.81,2.88-11.35,7.53-14.6,4.86-3.41,10.93-4.85,16.78-5.16A46.12,46.12,0,0,1,445.75,65.5c4.39,3.64,8.53,8.29,10,13.9,1.36,4.88.26,10.4-3.66,13.82A9.32,9.32,0,0,1,445,95.41a17.76,17.76,0,0,1-8.27-3.68c-4.73-3.42-8.61-8.22-14.37-10-4.22-1.32-9.69-.16-12.28,3.65A7.18,7.18,0,0,0,409,88.28a.86.86,0,0,0,.58,1.06h0a.85.85,0,0,0,1.06-.57v0c.68-4.81,6.6-6.6,10.74-5.51,6.06,1.61,10.12,7,15.08,10.43a18.23,18.23,0,0,0,8.77,3.51,10.87,10.87,0,0,0,7.68-2.36c4.26-3.34,5.87-9.1,4.93-14.29-1.09-6-5.12-11.15-9.56-15.13a47.83,47.83,0,0,0-32.69-12.07c-6.13.13-12.54,1.4-17.81,4.64s-9.1,8.41-9.62,14.5a13.72,13.72,0,0,0,7.4,13.37,11.17,11.17,0,0,0,3.71,1c1.11.13,1.1-1.61,0-1.7Z"/><path class="cls-1" d="M772.92,252.78H419A16.21,16.21,0,0,0,402.81,269h0v49.47A16.21,16.21,0,0,0,419,334.65h353.9a16.21,16.21,0,0,0,16.21-16.2V269a16.21,16.21,0,0,0-16.21-16.2Zm14.5,65.67a14.5,14.5,0,0,1-14.5,14.49H419a14.5,14.5,0,0,1-14.5-14.49V269A14.5,14.5,0,0,1,419,254.49h353.9A14.5,14.5,0,0,1,787.42,269Z"/><path class="cls-2" d="M481.08,266.43a27.29,27.29,0,1,0,27.29,27.29A27.29,27.29,0,0,0,481.08,266.43Z"/><path class="cls-1" d="M936.15,125A16.19,16.19,0,0,0,920,109.92H750.29a16.2,16.2,0,0,0-16.21,16.2v49.46a16.2,16.2,0,0,0,16.21,16.2H920a16.2,16.2,0,0,0,16.21-16.2h0V126.12C936.2,125.73,936.18,125.35,936.15,125Zm-1.66,50.6a14.5,14.5,0,0,1-14.5,14.5H750.29a14.5,14.5,0,0,1-14.5-14.5V126.12a14.5,14.5,0,0,1,14.5-14.5H920A14.51,14.51,0,0,1,934.44,125c0,.37,0,.75,0,1.13Z"/><path class="cls-3" d="M531.68,282.64a2.56,2.56,0,1,0,0,5.11H652.1a2.56,2.56,0,1,0,0-5.11Z"/><path class="cls-3" d="M531.68,303.1a2.56,2.56,0,1,0,0,5.12H652.1a2.56,2.56,0,0,0,0-5.12Z"/><path class="cls-3" d="M615.07,303.1a2.56,2.56,0,0,0,0,5.12H735.5a2.56,2.56,0,0,0,0-5.12Z"/><path class="cls-3" d="M840.94,143.17a2.56,2.56,0,1,0,0-5.11H789.08a2.56,2.56,0,1,0,0,5.11Z"/><path class="cls-3" d="M855.62,143.17a2.56,2.56,0,0,0,0-5.11H803.79a2.56,2.56,0,1,0,0,5.11Z"/><path class="cls-3" d="M840.52,164a2.56,2.56,0,1,0,0-5.11H788.71a2.56,2.56,0,1,0,0,5.11Z"/><path class="cls-3" d="M881.4,164a2.56,2.56,0,1,0,0-5.11H829.58a2.56,2.56,0,1,0,0,5.11Z"/><path class="cls-3" d="M559.4,74.19a2.56,2.56,0,1,0,0-5.11H507.58a2.56,2.56,0,0,0,0,5.11Z"/><path class="cls-3" d="M611.63,99.78a2.56,2.56,0,1,0,0-5.12h-51.8a2.56,2.56,0,0,0,0,5.12Z"/><path class="cls-3" d="M559.4,99.78a2.56,2.56,0,1,0,0-5.12H507.58a2.56,2.56,0,0,0,0,5.12Z"/><path id="b1bce2c7-12e1-4551-8863-d6d142670d08" class="cls-2" d="M636,509.67H347.72a5.33,5.33,0,0,1-5.33-5.33V377.83a5.34,5.34,0,0,1,5.33-5.34H636a5.34,5.34,0,0,1,5.34,5.34V504.34A5.34,5.34,0,0,1,636,509.67Z"/><path id="b8b7ef86-e6be-48b5-b7f8-365881aa5bd2" class="cls-4" d="M406.43,416.58a3.63,3.63,0,0,0,0,7.25H577.29a3.63,3.63,0,0,0,0-7.25Z"/><path id="a9b62e3b-06cf-4a55-8c8f-4aeba6e5e4c7" class="cls-4" d="M406.43,437.58a3.63,3.63,0,0,0,0,7.25H577.29a3.63,3.63,0,0,0,0-7.25Z"/><path id="a12f9c39-a43a-4056-b48c-3363dc06a37f" class="cls-4" d="M406.43,458.33a3.63,3.63,0,0,0,0,7.25H480a3.63,3.63,0,0,0,0-7.25Z"/></svg>