<svg id="Layer_1" data-name="Layer 1" xmlns="http://www.w3.org/2000/svg" viewBox="0 0 512 512"><path d="M428.42,344.74h66.86A16.74,16.74,0,0,0,512,328V27.15a16.73,16.73,0,0,0-16.72-16.72H428.42a16.72,16.72,0,0,0-16.71,16.72V328A16.73,16.73,0,0,0,428.42,344.74Z"/><path d="M41.73,344.74c2.7.46,128.74,0,128.74,0l-17.6,48c-12.15,33.18-4.29,83.83,29.42,101.84,11,5.86,26.31,8.81,38.67,5.7a27.94,27.94,0,0,0,17-12.77c4.27-7.23,3.83-15.68,5.35-23.7,3.86-20.34,13.47-39.68,28.35-54.2,25.95-25.31,106.57-98.33,106.57-98.33V43.86H99.68c-37.59,0-62.23,42-43.69,74.75-22.1,14.16-29.66,44-16.71,66.86-22.1,14.16-29.66,44-16.72,66.87C-15.57,276.76-2.82,337.21,41.73,344.74Z"/></svg>