<svg id="Capa_1" enable-background="new 0 0 512 512" height="512" viewBox="0 0 512 512" width="512" xmlns="http://www.w3.org/2000/svg"><path d="m57.765 277.696c-1.377 0-2.771-.378-4.019-1.172-3.5-2.224-4.535-6.863-2.311-10.364 29.376-46.24 72.294-87.071 124.114-118.081 20.416-12.217 41.765-22.608 63.453-30.886 3.876-1.48 8.215.463 9.692 4.337 1.479 3.874-.463 8.213-4.337 9.692-20.874 7.967-41.429 17.973-61.098 29.742-49.821 29.813-91.023 68.973-119.151 113.248-1.43 2.253-3.86 3.484-6.343 3.484z"/><path d="m511.886 232.535c.81-21.616-2.696-42.505-10.424-62.086-1.956-4.956-4.187-9.814-6.657-14.535-21.427-41.025-61.169-71.21-113.573-85.798-57.663-16.052-123.9-11.285-186.515 13.424-113.485 44.781-186.594 144.906-173.84 238.076.183 1.339.57 2.608 1.115 3.79-16.031 38.995-20.894 76.251-21.989 118.088-.109 4.155 3.171 7.612 7.327 7.721s7.612-3.171 7.721-7.327c1.028-39.269 5.512-74.302 20.138-110.793 1.506-.119 3.001-.469 4.404-1.099 58.093-26.085 122.091-30.585 175.582-12.346 4.527 1.543 9.389-.243 11.828-4.341 2.44-4.099 1.69-9.227-1.824-12.472-21.64-19.971-31.672-43.605-27.985-65.493 12.166 13.629 28.094 25.317 46.772 34.235 2.86 1.366 6.176 1.445 9.095.218 2.904-1.22 5.153-3.627 6.171-6.603 9.127-26.662 28.621-51.616 54.364-70.012 9.78-6.988 20.791-13.182 31.867-17.911 54.276-23.173 112.398-13.699 138.805 24.419.939 1.355 1.836 2.747 2.693 4.175-.016.046-.03.095-.046.141-3.267 9.132-9.895 16.445-18.663 20.592-8.767 4.146-18.625 4.631-27.758 1.364-11.513-4.119-20.126-13.685-23.039-25.588-.979-3.999-4.222-7.07-8.264-7.822-4.038-.753-8.162.944-10.511 4.319-3.528 5.07-6.28 10.645-8.18 16.57-2.945 9.182-3.689 19.084-2.154 28.638.659 4.094 4.515 6.879 8.605 6.221 4.094-.658 6.879-4.511 6.221-8.605-1.18-7.335-.633-14.625 1.626-21.668.46-1.434.985-2.84 1.574-4.215 5.764 12.158 16.116 21.657 29.063 26.29 12.909 4.619 26.843 3.934 39.236-1.928 8.135-3.848 14.945-9.641 19.986-16.806.979 3.28 1.761 6.64 2.314 10.079.002.014.006.027.009.041.101 5.629-.812 11.314-2.784 16.824-4.351 12.161-13.231 21.789-25.003 27.112-11.767 5.32-24.876 5.617-36.909.837-4.824-1.916-9.262-4.605-13.192-7.992-3.14-2.707-7.88-2.356-10.588.785s-2.356 7.882.785 10.589c5.199 4.481 11.07 8.039 17.452 10.574 7.48 2.971 15.272 4.452 23.05 4.452 8.707 0 17.394-1.857 25.587-5.561 15.517-7.015 27.222-19.706 32.956-35.736 2.64-7.378 3.789-15.126 3.551-22.815-.001-.009.001-.015.001-.022zm-90.617-81.788c-37.98-4.591-77.346 6.795-109.154 27.305-30.421 19.615-53.96 47.618-65.562 78.054-2.428-1.246-4.806-2.55-7.13-3.909-16.27-9.51-29.876-21.674-39.009-35.012-1.153-1.684-2.915-2.799-4.873-3.148-.653-.117-1.326-.149-2.004-.087-6.677.608-8.931 11.181-10.038 15.584-4.432 17.643-1.728 36.138 7.416 53.618 3.048 5.826 6.811 11.54 11.265 17.072-1.643-.404-3.293-.789-4.95-1.155-53.277-11.79-109.996-3.983-159.807 17.492-.65.28-1.302.55-1.95.835-4.874-40.459 8.2-84.366 36.95-123.902 29.956-41.195 75.344-75.284 127.805-95.985 36.525-14.413 74.269-21.716 110.576-21.716 22.93 0 45.291 2.914 66.399 8.791 13.816 3.846 26.66 8.854 38.425 14.907-11.876-2.618-24.313-4.371-37.279-5.217-32.453-2.117-66.542 1.467-101.311 10.653-4.009 1.059-6.4 5.168-5.341 9.176 1.059 4.009 5.163 6.403 9.177 5.341 65.57-17.322 129.926-13.382 176.805 10.789 7.363 7.532 13.755 15.691 19.13 24.402 4.125 6.806 7.765 13.919 10.684 21.328 1.274 3.226 2.42 6.492 3.437 9.796-16.417-19.235-40.625-31.501-69.661-35.012z"/></svg>