<svg id="Layer_1" data-name="Layer 1" xmlns="http://www.w3.org/2000/svg" viewBox="0 0 15 15"><defs><style>.cls-1{fill:#010101;}</style></defs><path class="cls-1" d="M3.64,15a3.59,3.59,0,0,1-2.56-1.08A3.6,3.6,0,0,1,0,11.22,4.32,4.32,0,0,1,1.36,8.33L2.9,6.79a.57.57,0,0,1,.82,0,.59.59,0,0,1,0,.83L2.19,9.16C1,10.4.83,12,1.91,13.09s2.69,1,3.93-.28L8,10.7A3.16,3.16,0,0,0,9,8.59,2.52,2.52,0,0,0,7.68,6.35a.59.59,0,0,1,.58-1,3.68,3.68,0,0,1,1.87,3.31,4.28,4.28,0,0,1-1.36,2.89l-2.1,2.11A4.32,4.32,0,0,1,3.78,15Zm3.9-5.55a.59.59,0,0,0-.22-.8,2.43,2.43,0,0,1-.55-.42A2.68,2.68,0,0,1,7.05,4.3L9.16,2.19C10.4,1,12,.83,13.09,1.91s1,2.69-.28,3.93L11.27,7.38a.59.59,0,0,0,0,.83.57.57,0,0,0,.82,0l1.54-1.54A4.32,4.32,0,0,0,15,3.78,3.69,3.69,0,0,0,11.23,0a4.33,4.33,0,0,0-2.9,1.36L6.23,3.47A4.28,4.28,0,0,0,4.87,6.36,3.68,3.68,0,0,0,6.74,9.67.6.6,0,0,0,7,9.75.6.6,0,0,0,7.54,9.45Z" transform="translate(0 0)"/></svg>