<svg id="Layer_1" data-name="Layer 1" xmlns="http://www.w3.org/2000/svg" viewBox="0 0 359.92 274.14"><defs><style>.cls-1{fill:#425a81;}.cls-2{fill:#4880df;}.cls-3{fill:#3672d5;}.cls-4{fill:#7aa7f3;}.cls-5{fill:#558ce7;}</style></defs><path class="cls-1" d="M5.27,274.14A5.36,5.36,0,0,1,0,268.68c.87-47.13,8.46-86.14,43.55-135A5.37,5.37,0,1,1,52.27,140c-33.46,46.59-40.7,83.87-41.54,128.92A5.36,5.36,0,0,1,5.27,274.14Z"/><path class="cls-2" d="M353.35,96.25a30.83,30.83,0,0,1-1,3.16,31.31,31.31,0,0,1-59.91-3.13,2.12,2.12,0,0,0-3.8-.71,39.11,39.11,0,1,0,64.66.68Z"/><path class="cls-3" d="M353.35,96.25a30.83,30.83,0,0,1-1,3.16,31.22,31.22,0,0,1-16.08,17.76,39.14,39.14,0,0,1-27.31,38,39.09,39.09,0,0,0,44.34-58.93Z"/><path class="cls-4" d="M352.76,74.16c-26.94-68.28-122-94.74-212.3-59.1C60.37,46.66,10.92,116.49,19.54,179.51a4.19,4.19,0,0,0,5.87,3.26c44-19.74,90.78-22.19,129.43-9a1.78,1.78,0,0,0,1.78-3c-17.18-15.85-25.73-36-20.94-55a42.81,42.81,0,0,1,2.45-7.1c8.42,12.28,21.56,23.21,37.87,31a2.56,2.56,0,0,0,3.53-1.45c7.6-22.2,24.79-43.57,49.33-58.26C275.33,52.12,330.47,58.79,352,94.82a60.36,60.36,0,0,1,7.81,21.55,103.64,103.64,0,0,0-7.08-42.21Z"/><path class="cls-5" d="M359.84,116.37a102.76,102.76,0,0,0-30.16-77.3c-51.93-27.25-131-20.83-202.14,21.73C74.67,92.44,37.33,137.39,21.42,182.46a4.19,4.19,0,0,0,4,.31c44-19.74,90.78-22.19,129.43-9a1.78,1.78,0,0,0,1.8-3c-17.19-15.85-25.75-36-21-55a43.08,43.08,0,0,1,1.46-4.68,1.43,1.43,0,0,1,2.48-.33c8.44,11.44,21,21.57,36.38,28.91a2.56,2.56,0,0,0,3.53-1.47c7.6-22.19,24.79-43.55,49.33-58.23C275.33,52.12,330.47,58.79,352,94.82a60.36,60.36,0,0,1,7.81,21.55Z"/><path class="cls-5" d="M352.76,74.16C330.1,16.73,259.25-11.11,183.57,2.7c54.7.07,102.47,22.52,124.89,62.23C327,69.09,342.68,79.19,352,94.82a60.36,60.36,0,0,1,7.81,21.55,103.64,103.64,0,0,0-7.08-42.21Z"/><path class="cls-2" d="M352.76,74.16a103.62,103.62,0,0,0-23.08-35.09C311.22,29.38,289.32,24,265.57,22.89c18.18,10.36,33,24.52,42.89,42C327,69.09,342.68,79.19,352,94.82a60.36,60.36,0,0,1,7.81,21.55,103.64,103.64,0,0,0-7.08-42.21Z"/></svg>