<svg id="Layer_1" data-name="Layer 1" xmlns="http://www.w3.org/2000/svg" viewBox="0 0 363.13 100"><defs><style>.cls-1{fill:#5490f4;}.cls-2{fill:#425a81;}.cls-3{fill:#4880df;}.cls-4{fill:#3672d5;}.cls-5{fill:#7aa7f3;}.cls-6{fill:#558ce7;}</style></defs><path class="cls-1" d="M29.26,29.9H32.7q4.24-7.6,7.69-10.77A11.25,11.25,0,0,1,48.23,16c2.94,0,4.41.66,4.41,2q0,1-3.44,5.2A69.82,69.82,0,0,0,44,30.3l4.85.56c1.41.16,2.52.29,3.32.4A125.37,125.37,0,0,1,40.71,48.63L37,48.35l-3.09-.24-3.8-.28q-4.32,7-7.24,12.45a69.84,69.84,0,0,0-4.49,10A26.72,26.72,0,0,0,16.77,79q0,5.52,4.41,5.52c2,0,4.68-1.08,8-3.24s7.67-5.48,13.17-10v5.36q-21.62,23.46-31.94,23.46A7,7,0,0,1,4.56,97.3a11.34,11.34,0,0,1-2.2-7.2,25.12,25.12,0,0,1,1.24-7Q4.85,79,8.05,70.72c-.75.65-1.46,1.27-2.12,1.89L4.08,74.29l-1.8,1.6C1.64,76.45,1,77,.36,77.61V72.09Q8.77,65,20.7,47.35l-2.25-.12c-.69,0-1.52,0-2.48,0a28.39,28.39,0,0,0-7,.64c-.64.16-1.24.33-1.8.52A4.38,4.38,0,0,1,6,48.63c-.22,0-.32-.16-.32-.48q0-2.64,3.28-7.93a29.21,29.21,0,0,1,5-6.64,12.28,12.28,0,0,1,5.77-2.92A46,46,0,0,1,29.26,29.9Z"/><path class="cls-1" d="M55,74.33v2q0,4.73,2.32,7.36a7.7,7.7,0,0,0,6.09,2.65,20.16,20.16,0,0,0,8.12-1.85,44.17,44.17,0,0,0,8.37-4.88Q84,76.57,90,71.45v4.88Q81,87.22,73.05,93T57,98.82A13.4,13.4,0,0,1,45.67,93.3q-4.16-5.52-4.16-15.13a30.17,30.17,0,0,1,3.92-15.25q3.93-6.84,12.81-14.45a49.56,49.56,0,0,1,12.09-7.85A27.12,27.12,0,0,1,81.06,38a9.47,9.47,0,0,1,6,1.72,6.15,6.15,0,0,1,2.2,5.17,16.61,16.61,0,0,1-3.76,10q-3.76,5-11.49,9.93A117.83,117.83,0,0,1,55,74.33Zm.8-5.21a45.64,45.64,0,0,0,12.33-7,35.38,35.38,0,0,0,7.56-8c1.63-2.53,2.45-4.39,2.45-5.56s-.56-1.84-1.69-1.84q-1.44,0-4.68,1.84a38.83,38.83,0,0,0-6.56,4.8,35.31,35.31,0,0,0-6,7A22.49,22.49,0,0,0,55.76,69.12Z"/><path class="cls-1" d="M128.29,70.56v5.93q-16.74,22.17-27.22,22.17-5.68,0-8.92-6.2T88.9,76.17q0-8.17,3.85-19.42A140.51,140.51,0,0,1,103,33.94,144.29,144.29,0,0,1,116.4,13.77q6.93-8.61,12.85-12A8.2,8.2,0,0,1,133,.28a2.17,2.17,0,0,1,2.24,1.48,15.71,15.71,0,0,1,.57,5.08q0,11.13-9,27.34t-25.22,33.1a37,37,0,0,0-.8,6.41A14.37,14.37,0,0,0,103,82a7,7,0,0,0,6.13,3.2,7.89,7.89,0,0,0,4.32-1.56,43.18,43.18,0,0,0,4.88-3.88Q120.85,77.44,128.29,70.56Zm-23.94-14.4a80.24,80.24,0,0,0,8.05-9.29,115.07,115.07,0,0,0,7.32-11.13,91,91,0,0,0,5.41-10.65q2-4.72,2-7.12c0-1.23-.43-1.84-1.28-1.84A4.58,4.58,0,0,0,124,17q-4.89,4-11,15.65A93.13,93.13,0,0,0,104.35,56.16Z"/><path class="cls-1" d="M165.84,70.56v5.93Q149.1,98.66,138.62,98.66q-5.69,0-8.93-6.2t-3.24-16.29q0-8.17,3.84-19.42a139.74,139.74,0,0,1,10.29-22.81A142.54,142.54,0,0,1,154,13.77q6.92-8.61,12.85-12A8.17,8.17,0,0,1,170.56.28a2.17,2.17,0,0,1,2.24,1.48,16.07,16.07,0,0,1,.56,5.08q0,11.13-9.05,27.34T139.1,67.28a36,36,0,0,0-.8,6.41A14.37,14.37,0,0,0,140.5,82a7,7,0,0,0,6.12,3.2A7.89,7.89,0,0,0,151,83.65a44.08,44.08,0,0,0,4.88-3.88Q158.39,77.44,165.84,70.56ZM141.9,56.16a80.19,80.19,0,0,0,8-9.29,117,117,0,0,0,7.33-11.13,90.8,90.8,0,0,0,5.4-10.65q2-4.72,2-7.12c0-1.23-.43-1.84-1.29-1.84a4.64,4.64,0,0,0-1.84.88q-4.87,4-11,15.65A93.13,93.13,0,0,0,141.9,56.16Z"/><path class="cls-1" d="M202.82,66q-11.61,15.38-17.65,21.86t-9.89,6.48a7.85,7.85,0,0,1-5.6-2.52,16.5,16.5,0,0,1-4-6.81,29.1,29.1,0,0,1-1.41-9.16,25.35,25.35,0,0,1,.61-5.77,23.13,23.13,0,0,1,2.28-5.64,52.69,52.69,0,0,1,4.44-6.68q2.76-3.61,6.76-8.17l4-4.72a9.43,9.43,0,0,1,3.2-2.61,13.79,13.79,0,0,1,5.08-.68,17.45,17.45,0,0,1,4.89.68c1.54.46,2.32.93,2.32,1.41q0,1.44-2.36,5.2A60.19,60.19,0,0,1,188,58a105.3,105.3,0,0,1-12.13,10.6,26,26,0,0,0-1.52,7.21q0,3.44,2.64,3.44c.64,0,1.71-.55,3.21-1.64s4-3.2,7.56-6.32,6.74-5.89,9.57-8.29a56,56,0,0,0,7.24-8.13q4.13-5.4,6.69-8.12c4-4.17,6.64-6.87,8.08-8.13a6.5,6.5,0,0,1,4.17-1.88,2.73,2.73,0,0,1,2.6,1.2c.45.8.68,2.43.68,4.89a9.64,9.64,0,0,1-.32,2.72,13.43,13.43,0,0,1-1.32,2.68c-.67,1.09-2,3.11-4.05,6s-4.43,6.41-7.2,10.41a40.9,40.9,0,0,0-3.92,7,16,16,0,0,0-1.68,5.72c0,2.78,1.09,4.16,3.28,4.16a12.38,12.38,0,0,0,6.32-2.24q3.6-2.24,11-8.08v5.36q-9.36,8.64-13.85,12.57a59,59,0,0,1-7.77,5.92,12,12,0,0,1-6.24,2q-6.72,0-6.72-8a24.27,24.27,0,0,1,2-8.21Q198.33,75.77,202.82,66Z"/><path class="cls-1" d="M227.88,73.69V71.77Q248.54,50,256.3,41.26q1.76-9.84,8.48-9.84a8.1,8.1,0,0,1,3.61,1l.48,1.52a8.8,8.8,0,0,0-.32,2.72,25,25,0,0,0,1.16,5.64q1.16,4.13,1.8,6.93a28.33,28.33,0,0,1,.64,6.32,22.52,22.52,0,0,1-2.4,10.13,34.2,34.2,0,0,1-7,9.29A75.07,75.07,0,0,1,251,84a29.61,29.61,0,0,0,4.57.48,17.82,17.82,0,0,0,7.08-1.64,44.1,44.1,0,0,0,7.77-4.4q4-2.76,9.24-7.16v5.36a119.28,119.28,0,0,1-18.33,15.17Q253.26,97,247.41,97q-7.51,0-13.93-6.4a17.14,17.14,0,0,1-4.68-7.37A39.29,39.29,0,0,1,227.88,73.69Zm29.86-12.25L256.3,49.75q-5,5.61-21.22,21.54c3.21.69,5.39,1.62,6.57,2.8a44,44,0,0,1,5,6.8A19.37,19.37,0,0,0,255,74.77q2.91-3.88,2.92-10.61c0-.53,0-1,0-1.44S257.79,61.87,257.74,61.44Z"/><path class="cls-2" d="M281.68,65.48a1.22,1.22,0,0,1-1.21-1.25c.2-10.82,1.94-19.78,10-31a1.23,1.23,0,1,1,2,1.44c-7.68,10.69-9.35,19.26-9.54,29.61A1.21,1.21,0,0,1,281.68,65.48Z"/><path class="cls-3" d="M361.62,24.63a6.52,6.52,0,0,1-.21.72,7.19,7.19,0,0,1-13.76-.71.49.49,0,0,0-.88-.17,9,9,0,1,0,15.83,8.16,8.93,8.93,0,0,0-1-8Z"/><path class="cls-4" d="M361.62,24.63a6.52,6.52,0,0,1-.21.72,7.17,7.17,0,0,1-3.7,4.08,9,9,0,0,1-6.27,8.73,9,9,0,0,0,10.18-13.53Z"/><path class="cls-5" d="M361.49,19.55C355.3,3.87,333.47-2.21,312.73,6,294.33,13.24,283,29.28,285,43.75a1,1,0,0,0,1.34.75C296.4,40,307.15,39.4,316,42.43a.41.41,0,0,0,.41-.69c-3.95-3.64-5.91-8.27-4.81-12.64a10.11,10.11,0,0,1,.56-1.63,22,22,0,0,0,8.7,7.12.59.59,0,0,0,.81-.33A25.78,25.78,0,0,1,333,20.88c10.67-6.39,23.34-4.86,28.29,3.42a13.54,13.54,0,0,1,1.79,4.95,23.8,23.8,0,0,0-1.62-9.7Z"/><path class="cls-6" d="M363.11,29.25a23.57,23.57,0,0,0-6.92-17.76c-11.93-6.26-30.09-4.78-46.43,5C297.62,23.75,289,34.08,285.39,44.43a1,1,0,0,0,.91.07C296.4,40,307.15,39.4,316,42.43a.4.4,0,0,0,.41-.68c-3.94-3.65-5.91-8.28-4.81-12.65A9.48,9.48,0,0,1,312,28a.33.33,0,0,1,.58-.08,22.19,22.19,0,0,0,8.35,6.64.58.58,0,0,0,.81-.34A25.84,25.84,0,0,1,333,20.88c10.67-6.39,23.34-4.86,28.29,3.42a13.54,13.54,0,0,1,1.79,4.95Z"/><path class="cls-6" d="M361.49,19.55C356.28,6.36,340,0,322.63,3.14c12.56,0,23.53,5.17,28.68,14.29a15.24,15.24,0,0,1,10,6.87,13.54,13.54,0,0,1,1.79,4.95,23.8,23.8,0,0,0-1.62-9.7Z"/><path class="cls-3" d="M361.49,19.55a23.89,23.89,0,0,0-5.3-8.06,35.05,35.05,0,0,0-14.73-3.71,25.74,25.74,0,0,1,9.85,9.65,15.24,15.24,0,0,1,10,6.87,13.54,13.54,0,0,1,1.79,4.95,23.8,23.8,0,0,0-1.62-9.7Z"/></svg>