<svg id="Layer_1" data-name="Layer 1" xmlns="http://www.w3.org/2000/svg" viewBox="0 0 512 512"><defs><style>.cls-1{fill:#5490f4;}.cls-2{fill:#fff;}</style></defs><path class="cls-1" d="M256,0C115.39,0,0,115.39,0,256S115.39,512,256,512,512,396.61,512,256,396.61,0,256,0Z"/><path class="cls-2" d="M87.39,388.69a5.19,5.19,0,0,1-5.09-5.28c.84-45.48,8.17-83.14,42-130.29a5.18,5.18,0,1,1,8.41,6.05c-32.3,45-39.28,80.95-40.09,124.43A5.18,5.18,0,0,1,87.39,388.69Z"/><path class="cls-2" d="M423.36,217a30.59,30.59,0,0,1-.91,3.06,30.23,30.23,0,0,1-57.83-3,2,2,0,0,0-3.67-.69,37.41,37.41,0,0,0-5,10,37.75,37.75,0,1,0,67.38-9.4Z"/><path class="cls-2" d="M423.36,217a30.59,30.59,0,0,1-.91,3.06,30.16,30.16,0,0,1-15.53,17.14,37.72,37.72,0,0,1-26.36,36.69A37.74,37.74,0,0,0,423.36,217Z"/><path class="cls-2" d="M422.79,195.66c-26-65.9-117.75-91.44-204.92-57-77.3,30.5-125,97.9-116.7,158.73a4,4,0,0,0,5.65,3.14c42.44-19.05,87.63-21.42,124.94-8.69a1.72,1.72,0,0,0,1.72-2.89c-16.59-15.3-24.84-34.76-20.22-53.12a41.16,41.16,0,0,1,2.37-6.86c8.12,11.86,20.8,22.41,36.55,29.93a2.47,2.47,0,0,0,3.4-1.41c7.34-21.43,23.93-42,47.62-56.22,44.85-26.84,98.08-20.4,118.89,14.37a58.36,58.36,0,0,1,7.53,20.8,100.13,100.13,0,0,0-6.83-40.74Z"/><path class="cls-2" d="M429.62,236.4a99.19,99.19,0,0,0-29.1-74.61c-50.13-26.3-126.45-20.1-195.11,21-51,30.54-87.08,73.92-102.43,117.42a4,4,0,0,0,3.84.3c42.44-19.05,87.63-21.42,124.94-8.69a1.72,1.72,0,0,0,1.73-2.88c-16.59-15.3-24.85-34.76-20.23-53.13a40.84,40.84,0,0,1,1.41-4.52,1.38,1.38,0,0,1,2.4-.31c8.14,11,20.26,20.81,35.11,27.9a2.47,2.47,0,0,0,3.41-1.42c7.33-21.42,23.92-42,47.61-56.21,44.85-26.84,98.08-20.4,118.89,14.37a58.36,58.36,0,0,1,7.53,20.8Z"/><path class="cls-2" d="M422.79,195.66c-21.87-55.43-90.26-82.3-163.31-69,52.8.07,98.91,21.74,120.55,60.06,17.9,4,33,13.77,42.06,28.85a58.36,58.36,0,0,1,7.53,20.8,100.13,100.13,0,0,0-6.83-40.74Z"/><path class="cls-2" d="M422.79,195.66a100.09,100.09,0,0,0-22.27-33.87c-17.83-9.35-39-14.59-61.89-15.62,17.55,10,31.85,23.67,41.4,40.58,17.9,4,33,13.77,42.06,28.85a58.36,58.36,0,0,1,7.53,20.8,100.13,100.13,0,0,0-6.83-40.74Z"/></svg>