<svg id="Layer_1" data-name="Layer 1" xmlns="http://www.w3.org/2000/svg" viewBox="0 0 500 100"><defs><style>.cls-1{font-size:163.95px;fill:#5490f4;font-family:BrushScriptMT, Brush Script MT;}.cls-2{fill:#425a81;}.cls-3{fill:#4880df;}.cls-4{fill:#3672d5;}.cls-5{fill:#7aa7f3;}.cls-6{fill:#558ce7;}</style></defs><text class="cls-1" transform="translate(-0.12 96.66)">tellus</text><path class="cls-2" d="M281.68,65.48a1.22,1.22,0,0,1-1.21-1.25c.2-10.82,1.94-19.78,10-31a1.23,1.23,0,1,1,2,1.44c-7.68,10.69-9.35,19.26-9.54,29.61A1.21,1.21,0,0,1,281.68,65.48Z"/><path class="cls-3" d="M361.62,24.63a6.52,6.52,0,0,1-.21.72,7.19,7.19,0,0,1-13.76-.71.49.49,0,0,0-.88-.17,9,9,0,1,0,15.83,8.16,8.93,8.93,0,0,0-1-8Z"/><path class="cls-4" d="M361.62,24.63a6.52,6.52,0,0,1-.21.72,7.17,7.17,0,0,1-3.7,4.08,9,9,0,0,1-6.27,8.73,9,9,0,0,0,10.18-13.53Z"/><path class="cls-5" d="M361.49,19.55C355.3,3.87,333.47-2.21,312.73,6,294.33,13.24,283,29.28,285,43.75a1,1,0,0,0,1.34.75C296.4,40,307.15,39.4,316,42.43a.41.41,0,0,0,.41-.69c-3.95-3.64-5.91-8.27-4.81-12.64a10.11,10.11,0,0,1,.56-1.63,22,22,0,0,0,8.7,7.12.59.59,0,0,0,.81-.33A25.78,25.78,0,0,1,333,20.88c10.67-6.39,23.34-4.86,28.29,3.42a13.54,13.54,0,0,1,1.79,4.95,23.8,23.8,0,0,0-1.62-9.7Z"/><path class="cls-6" d="M363.11,29.25a23.57,23.57,0,0,0-6.92-17.76c-11.93-6.26-30.09-4.78-46.43,5C297.62,23.75,289,34.08,285.39,44.43a1,1,0,0,0,.91.07C296.4,40,307.15,39.4,316,42.43a.4.4,0,0,0,.41-.68c-3.94-3.65-5.91-8.28-4.81-12.65A9.48,9.48,0,0,1,312,28a.33.33,0,0,1,.58-.08,22.19,22.19,0,0,0,8.35,6.64.58.58,0,0,0,.81-.34A25.84,25.84,0,0,1,333,20.88c10.67-6.39,23.34-4.86,28.29,3.42a13.54,13.54,0,0,1,1.79,4.95Z"/><path class="cls-6" d="M361.49,19.55C356.28,6.36,340,0,322.63,3.14c12.56,0,23.53,5.17,28.68,14.29a15.24,15.24,0,0,1,10,6.87,13.54,13.54,0,0,1,1.79,4.95,23.8,23.8,0,0,0-1.62-9.7Z"/><path class="cls-3" d="M361.49,19.55a23.89,23.89,0,0,0-5.3-8.06,35.05,35.05,0,0,0-14.73-3.71,25.74,25.74,0,0,1,9.85,9.65,15.24,15.24,0,0,1,10,6.87,13.54,13.54,0,0,1,1.79,4.95,23.8,23.8,0,0,0-1.62-9.7Z"/></svg>