<svg height="511pt" viewBox="0 1 511.99999 511" width="511pt" xmlns="http://www.w3.org/2000/svg"><path d="m180.996094 225.480469c0 41.359375 33.648437 75.003906 75.003906 75.003906s75.003906-33.644531 75.003906-75.003906c0-41.355469-33.648437-75-75.003906-75s-75.003906 33.644531-75.003906 75zm120.007812 0c0 24.816406-20.191406 45.003906-45.003906 45.003906s-45.003906-20.1875-45.003906-45.003906c0-24.8125 20.191406-45 45.003906-45s45.003906 20.1875 45.003906 45zm0 0"/><path d="m316.003906 330.488281h-120.007812c-8.28125 0-15 6.714844-15 15 0 8.285157 6.71875 15 15 15h120.007812c8.285156 0 15-6.714843 15-15 0-8.285156-6.714844-15-15-15zm0 0"/><path d="m5.921875 187.808594c12.394531 21.679687 39.964844 29.066406 61.363281 16.757812l12.460938-7.082031 41.53125 210.90625c1.382812 7.03125 7.550781 12.101563 14.71875 12.101563h45v77.003906c0 8.285156 6.71875 15 15 15h120.007812c8.285156 0 15-6.714844 15-15v-77.003906h45.003906c7.164063 0 13.332032-5.070313 14.71875-12.101563l41.53125-210.90625 12.421876 7.0625c21.757812 12.441406 49.21875 4.589844 61.402343-16.742187 12.308594-21.546876 4.796875-49.089844-16.773437-61.410157l-210.980469-119.992187c-13.773437-7.867188-30.882813-7.867188-44.628906-.015625l-211.035157 120.023437c-21.542968 12.304688-29.054687 39.847656-16.742187 61.398438zm295.082031 294.6875h-90.007812v-62.003906h90.007812zm62.667969-92.003906h-215.34375l-41.085937-208.640626 148.757812-84.566406 148.753906 84.566406zm-326.148437-238.019532 211.035156-120.019531c2.292968-1.3125 4.859375-1.964844 7.433594-1.964844 2.582031 0 5.164062.660157 7.476562 1.980469l210.984375 119.988281c7.175781 4.101563 9.703125 13.246094 5.574219 20.46875-4.050782 7.097657-13.1875 9.734375-20.488282 5.558594l-203.539062-115.707031-203.605469 115.746094c-7.140625 4.105468-16.304687 1.605468-20.425781-5.601563-4.125-7.214844-1.589844-16.367187 5.554688-20.449219zm0 0"/></svg>